<svg width="300" height="100" viewBox="0 0 300 100" fill="none" xmlns="http://www.w3.org/2000/svg">
<rect width="300" height="100" fill="white"/>
<g>
<path d="M40.5 2.5C40.5 2.5 2.5 2.5 2.5 2.5V97.5C2.5 97.5 40.5 97.5 40.5 97.5C40.5 97.5 40.5 2.5 40.5 2.5Z" fill="#05243C" stroke="#A0A4A3" stroke-width="2"/>
<path d="M20.5 10.5L20.5 20.5L20.5 30.5L20.5 40.5L20.5 50.5L20.5 60.5L20.5 70.5L20.5 80.5L20.5 90.5" stroke="#A0A4A3" stroke-width="2"/>
<path d="M10.5 50.5L30.5 50.5" stroke="#A0A4A3" stroke-width="2"/>
<path d="M20.5 10.5L20.5 20.5L20.5 30.5L20.5 40.5L20.5 50.5L20.5 60.5L20.5 70.5L20.5 80.5L20.5 90.5" stroke="#A0A4A3" stroke-width="2"/>
<path d="M10.5 50.5L30.5 50.5" stroke="#A0A4A3" stroke-width="2"/>
<path d="M20.5 10.5L20.5 20.5L20.5 30.5L20.5 40.5L20.5 50.5L20.5 60.5L20.5 70.5L20.5 80.5L20.5 90.5" stroke="#A0A4A3" stroke-width="2"/>
<path d="M10.5 50.5L30.5 50.5" stroke="#A0A4A3" stroke-width="2"/>
<path d="M20.5 10.5L20.5 20.5L20.5 30.5L20.5 40.5L20.5 50.5L20.5 60.5L20.5 70.5L20.5 80.5L20.5 90.5" stroke="#A0A4A3" stroke-width="2"/>
<path d="M10.5 50.5L30.5 50.5" stroke="#A0A4A3" stroke-width="2"/>
<path d="M20.5 10.5L20.5 20.5L20.5 30.5L20.5 40.5L20.5 50.5L20.5 60.5L20.5 70.5L20.5 80.5L20.5 90.5" stroke="#A0A4A3" stroke-width="2"/>
<path d="M10.5 50.5L30.5 50.5" stroke="#A0A4A3" stroke-width="2"/>
<path d="M20.5 10.5L20.5 20.5L20.5 30.5L20.5 40.5L20.5 50.5L20.5 60.5L20.5 70.5L20.5 80.5L20.5 90.5" stroke="#A0A4A3" stroke-width="2"/>
<path d="M10.5 50.5L30.5 50.5" stroke="#A0A4A3" stroke-width="2"/>
<path d="M20.5 10.5L20.5 20.5L20.5 30.5L20.5 40.5L20.5 50.5L20.5 60.5L20.5 70.5L20.5 80.5L20.5 90.5" stroke="#A0A4A3" stroke-width="2"/>
<path d="M10.5 50.5L30.5 50.5" stroke="#A0A4A3" stroke-width="2"/>
<path d="M20.5 10.5L20.5 20.5L20.5 30.5L20.5 40.5L20.5 50.5L20.5 60.5L20.5 70.5L20.5 80.5L20.5 90.5" stroke="#A0A4A3" stroke-width="2"/>
<path d="M10.5 50.5L30.5 50.5" stroke="#A0A4A3" stroke-width="2"/>
<path d="M20.5 10.5L20.5 20.5L20.5 30.5L20.5 40.5L20.5 50.5L20.5 60.5L20.5 70.5L20.5 80.5L20.5 90.5" stroke="#A0A4A3" stroke-width="2"/>
<path d="M10.5 50.5L30.5 50.5" stroke="#A0A4A3" stroke-width="2"/>
<path d="M20.5 10.5L20.5 20.5L20.5 30.5L20.5 40.5L20.5 50.5L20.5 60.5L20.5 70.5L20.5 80.5L20.5 90.5" stroke="#A0A4A3" stroke-width="2"/>
<path d="M10.5 50.5L30.5 50.5" stroke="#A0A4A3" stroke-width="2"/>
<path d="M20.5 10.5L20.5 20.5L20.5 30.5L20.5 40.5L20.5 50.5L20.5 60.5L20.5 70.5L20.5 80.5L20.5 90.5" stroke="#A0A4A3" stroke-width="2"/>
<path d="M10.5 50.5L30.5 50.5" stroke="#A0A4A3" stroke-width="2"/>
<path d="M20.5 10.5L20.5 20.5L20.5 30.5L20.5 40.5L20.5 50.5L20.5 60.5L20.5 70.5L20.5 80.5L20.5 90.5" stroke="#A0A4A3" stroke-width="2"/>
<path d="M10.5 50.5L30.5 50.5" stroke="#A0A4A3" stroke-width="2"/>
<path d="M20.5 10.5L20.5 20.5L20.5 30.5L20.5 40.5L20.5 50.5L20.5 60.5L20.5 70.5L20.5 80.5L20.5 90.5" stroke="#A0A4A3" stroke-width="2"/>
<path d="M10.5 50.5L30.5 50.5" stroke="#A0A4A3" stroke-width="2"/>
<path d="M20.5 10.5L20.5 20.5L20.5 30.5L20.5 40.5L20.5 50.5L20.5 60.5L20.5 70.5L20.5 80.5L20.5 90.5" stroke="#A0A4A3" stroke-width="2"/>
<path d="M10.5 50.5L30.5 50.5" stroke="#A0A4A3" stroke-width="2"/>
<path d="M20.5 10.5L20.5 20.5L20.5 30.5L20.5 40.5L20.5 50.5L20.5 60.5L20.5 70.5L20.5 80.5L20.5 90.5" stroke="#A0A4A3" stroke-width="2"/>
<path d="M10.5 50.5L30.5 50.5" stroke="#A0A4A3" stroke-width="2"/>
<path d="M20.5 10.5L20.5 20.5L20.5 30.5L20.5 40.5L20.5 50.5L20.5 60.5L20.5 70.5L20.5 80.5L20.5 90.5" stroke="#A0A4A3" stroke-width="2"/>
<path d="M10.5 50.5L30.5 50.5" stroke="#A0A4A3" stroke-width="2"/>
<path d="M20.5 10.5L20.5 20.5L20.5 30.5L20.5 40.5L20.5 50.5L20.5 60.5L20.5 70.5L20.5 80.5L20.5 90.5" stroke="#A0A4A3" stroke-width="2"/>
<path d="M10.5 50.5L30.5 50.5" stroke="#A0A4A3" stroke-width="2"/>
<path d="M20.5 10.5L20.5 20.5L20.5 30.5L20.5 40.5L20.5 50.5L20.5 60.5L20.5 70.5L20.5 80.5L20.5 90.5" stroke="#A0A4A3" stroke-width="2"/>
<path d="M10.5 50.5L30.5 50.5" stroke="#A0A4A3" stroke-width="2"/>
<path d="M20.5 10.5L20.5 20.5L20.5 30.5L20.5 40.5L20.5 50.5L20.5 60.5L20.5 70.5L20.5 80.5L20.5 90.5" stroke="#A0A4A3" stroke-width="2"/>
<path d="M10.5 50.5L30.5 50.5" stroke="#A0A4A3" stroke-width="2"/>
<path d="M20.5 10.5L20.5 20.5L20.5 30.5L20.5 40.5L20.5 50.5L20.5 60.5L20.5 70.5L20.5 80.5L20.5 90.5" stroke="#A0A4A3" stroke-width="2"/>
<path d="M10.5 50.5L30.5 50.5" stroke="#A0A4A3" stroke-width="2"/>
<path d="M20.5 10.5L20.5 20.5L20.5 30.5L20.5 40.5L20.5 50.5L20.5 60.5L20.5 70.5L20.5 80.5L20.5 90.5" stroke="#A0A4A3" stroke-width="2"/>
<path d="M10.5 50.5L30.5 50.5" stroke="#A0A4A3" stroke-width="2"/>
<path d="M20.5 10.5L20.5 20.5L20.5 30.5L20.5 40.5L20.5 50.5L20.5 60.5L20.5 70.5L20.5 80.5L20.5 90.5" stroke="#A0A4A3" stroke-width="2"/>
<path d="M10.5 50.5L30.5 50.5" stroke="#A0A4A3" stroke-width="2"/>
<path d="M20.5 10.5L20.5 20.5L20.5 30.5L20.5 40.5L20.5 50.5L20.5 60.5L20.5 70.5L20.5 80.5L20.5 90.5" stroke="#A0A4A3" stroke-width="2"/>
<path d="M10.5 50.5L30.5 50.5" stroke="#A0A4A3" stroke-width="2"/>
<path d="M20.5 10.5L20.5 20.5L20.5 30.5L20.5 40.5L20.5 50.5L20.5 60.5L20.5 70.5L20.5 80.5L20.5 90.5" stroke="#A0A4A3" stroke-width="2"/>
<path d="M10.5 50.5L30.5 50.5" stroke="#A0A4A3" stroke-width="2"/>
<path d="M20.5 10.5L20.5 20.5L20.5 30.5L20.5 40.5L20.5 50.5L20.5 60.5L20.5 70.5L20.5 80.5L20.5 90.5" stroke="#A0A4A3" stroke-width="2"/>
<path d="M10.5 50.5L30.5 50.5" stroke="#A0A4A3" stroke-width="2"/>
<path d="M20.5 10.5L20.5 20.5L20.5 30.5L20.5 40.5L20.5 50.5L20.5 60.5L20.5 70.5L20.5 80.5L20.5 90.5" stroke="#A0A4A3" stroke-width="2"/>
<path d="M10.5 50.5L30.5 50.5" stroke="#A0A4A3" stroke-width="2"/>
<path d="M20.5 10.5L20.5 20.5L20.5 30.5L20.5 40.5L20.5 50.5L20.5 60.5L20.5 70.5L20.5 80.5L20.5 90.5" stroke="#A0A4A3" stroke-width="2"/>
<path d="M10.5 50.5L30.5 50.5" stroke="#A0A4A3" stroke-width="2"/>
<path d="M20.5 10.5L20.5 20.5L20.5 30.5L20.5 40.5L20.5 50.5L20.5 60.5L20.5 70.5L20.5 80.5L20.5 90.5" stroke="#A0A4A3" stroke-width="2"/>
<path d="M10.5 50.5L30.5 50.5" stroke="#A0A4A3" stroke-width="2"/>
<path d="M20.5 10.5L20.5 20.5L20.5 30.5L20.5 40.5L20.5 50.5L20.5 60.5L20.5 70.5L20.5 80.5L20.5 90.5" stroke="#A0A4A3" stroke-width="2"/>
<path d="M10.5 50.5L30.5 50.5" stroke="#A0A4A3" stroke-width="2"/>
<path d="M20.5 10.5L20.5 20.5L20.5 30.5L20.5 40.5L20.5 50.5L20.5 60.5L20.5 70.5L20.5 80.5L20.5 90.5" stroke="#A0A4A3" stroke-width="2"/>
<path d="M10.5 50.5L30.5 50.5" stroke="#A0A4A3" stroke-width="2"/>
<path d="M20.5 10.5L20.5 20.5L20.5 30.5L20.5 40.5L20.5 50.5L20.5 60.5L20.5 70.5L20.5 80.5L20.5 90.5" stroke="#A0A4A3" stroke-width="2"/>
<path d="M10.5 50.5L30.5 50.5" stroke="#A0A4A3" stroke-width="2"/>
<path d="M20.5 10.5L20.5 20.5L20.5 30.5L20.5 40.5L20.5 50.5L20.5 60.5L20.5 70.5L20.5 80.5L20.5 90.5" stroke="#A0A4A3" stroke-width="2"/>
<path d="M10.5 50.5L30.5 50.5" stroke="#A0A4A3" stroke-width="2"/>
<path d="M20.5 10.5L20.5 20.5L20.5 30.5L20.5 40.5L20.5 50.5L20.5 60.5L20.5 70.5L20.5 80.5L20.5 90.5" stroke="#A0A4A3" stroke-width="2"/>
<path d="M10.5 50.5L30.5 50.5" stroke="#A0A4A3" stroke-width="2"/>
<path d="M20.5 10.5L20.5 20.5L20.5 30.5L20.5 40.5L20.5 50.5L20.5 60.5L20.5 70.5L20.5 80.5L20.5 90.5" stroke="#A0A4A3" stroke-width="2"/>
<path d="M10.5 50.5L30.5 50.5" stroke="#A0A4A3" stroke-width="2"/>
<path d="M20.5 10.5L20.5 20.5L20.5 30.5L20.5 40.5L20.5 50.5L20.5 60.5L20.5 70.5L20.5 80.5L20.5 90.5" stroke="#A0A4A3" stroke-width="2"/>
<path d="M10.5 50.5L30.5 50.5" stroke="#A0A4A3" stroke-width="2"/>
<path d="M20.5 10.5L20.5 20.5L20.5 30.5L20.5 40.5L20.5 50.5L20.5 60.5L20.5 70.5L20.5 80.5L20.5 90.5" stroke="#A0A4A3" stroke-width="2"/>
<path d="M10.5 50.5L30.5 50.5" stroke="#A0A4A3" stroke-width="2"/>
<path d="M20.5 10.5L20.5 20.5L20.5 30.5L20.5 40.5L20.5 50.5L20.5 60.5L20.5 70.5L20.5 80.5L20.5 90.5" stroke="#A0A4A3" stroke-width="2"/>
<path d="M10.5 50.5L30.5 50.5" stroke="#A0A4A3" stroke-width="2"/>
<path d="M20.5 10.5L20.5 20.5L20.5 30.5L20.5 40.5L20.5 50.5L20.5 60.5L20.5 70.5L20.5 80.5L20.5 90.5" stroke="#A0A4A3" stroke-width="2"/>
<path d="M10.5 50.5L30.5 50.5" stroke="#A0A4A3" stroke-width="2"/>
<path d="M20.5 10.5L20.5 20.5L20.5 30.5L20.5 40.5L20.5 50.5L20.5 60.5L20.5 70.5L20.5 80.5L20.5 90.5" stroke="#A0A4A3" stroke-width="2"/>
<path d="M10.5 50.5L30.5 50.5" stroke="#A0A4A3" stroke-width="2"/>
<path d="M20.5 10.5L20.5 20.5L20.5 30.5L20.5 40.5L20.5 50.5L20.5 60.5L20.5 70.5L20.5 80.5L20.5 90.5" stroke="#A0A4A3" stroke-width="2"/>
<path d="M10.5 50.5L30.5 50.5" stroke="#A0A4A3" stroke-width="2"/>
<path d="M20.5 10.5L20.5 20.5L20.5 30.5L20.5 40.5L20.5 50.5L20.5 60.5L20.5 70.5L20.5 80.5L20.5 90.5" stroke="#A0A4A3" stroke-width="2"/>
<path d="M10.5 50.5L30.5 50.5" stroke="#A0A4A3" stroke-width="2"/>
<path d="M20.5 10.5L20.5 20.5L20.5 30.5L20.5 40.5L20.5 50.5L20.5 60.5L20.5 70.5L20.5 80.5L20.5 90.5" stroke="#A0A4A3" stroke-width="2"/>
<path d="M10.5 50.5L30.5 50.5" stroke="#A0A4A3" stroke-width="2"/>
<path d="M20.5 10.5L20.5 20.5L20.5 30.5L20.5 40.5L20.5 50.5L20.5 60.5L20.5 70.5L20.5 80.5L20.5 90.5" stroke="#A0A4A3" stroke-width="2"/>
<path d="M10.5 50.5L30.5 50.5" stroke="#A0A4A3" stroke-width="2"/>
<path d="M20.5 10.5L20.5 20.5L20.5 30.5L20.5 40.5L20.5 50.5L20.5 60.5L20.5 70.5L20.5 80.5L20.5 90.5" stroke="#A0A4A3" stroke-width="2"/>
<path d="M10.5 50.5L30.5 50.5" stroke="#A0A4A3" stroke-width="2"/>
<path d="M20.5 10.5L20.5 20.5L20.5 30.5L20.5 40.5L20.5 50.5L20.5 60.5L20.5 70.5L20.5 80.5L20.5 90.5" stroke="#A0A4A3" stroke-width="2"/>
<path d="M10.5 50.5L30.5 50.5" stroke="#A0A4A3" stroke-width="2"/>
<path d="M20.5 10.5L20.5 20.5L20.5 30.5L20.5 40.5L20.5 50.5L20.5 60.5L20.5 70.5L20.5 80.5L20.5 90.5" stroke="#A0A4A3" stroke-width="2"/>
<path d="M10.5 50.5L30.5 50.5" stroke="#A0A4A3" stroke-width="2"/>
<path d="M20.5 10.5L20.5 20.5L20.5 30.5L20.5 40.5L20.5 50.5L20.5 60.5L20.5 70.5L20.5 80.5L20.5 90.5" stroke="#A0A4A3" stroke-width="2"/>
<path d="M10.5 50.5L30.5 50.5" stroke="#A0A4A3" stroke-width="2"/>
<path d="M20.5 10.5L20.5 20.5L20.5 30.5L20.5 40.5L20.5 50.5L20.5 60.5L20.5 70.5L20.5 80.5L20.5 90.5" stroke="#A0A4A3" stroke-width="2"/>
<path d="M10.5 50.5L30.5 50.5" stroke="#A0A4A3" stroke-width="2"/>
<path d="M20.5 10.5L20.5 20.5L20.5 30.5L20.5 40.5L20.5 50.5L20.5 60.5L20.5 70.5L20.5 80.5L20.5 90.5" stroke="#A0A4A3" stroke-width="2"/>
<path d="M10.5 50.5L30.5 50.5" stroke="#A0A4A3" stroke-width="2"/>
<path d="M20.5 10.5L20.5 20.5L20.5 30.5L20.5 40.5L20.5 50.5L20.5 60.5L20.5 70.5L20.5 80.5L20.5 90.5" stroke="#A0A4A3" stroke-width="2"/>
<path d="M10.5 50.5L30.5 50.5" stroke="#A0A4A3" stroke-width="2"/>
<path d="M20.5 10.5L20.5 20.5L20.5 30.5L20.5 40.5L20.5 50.5L20.5 60.5L20.5 70.5L20.5 80.5L20.5 90.5" stroke="#A0A4A3" stroke-width="2"/>
<path d="M10.5 50.5L30.5 50.5" stroke="#A0A4A3" stroke-width="2"/>
<path d="M20.5 10.5L20.5 20.5L20.5 30.5L20.5 40.5L20.5 50.5L20.5 60.5L20.5 70.5L20.5 80.5L20.5 90.5" stroke="#A0A4A3" stroke-width="2"/>
<path d="M10.5 50.5L30.5 50.5" stroke="#A0A4A3" stroke-width="2"/>
<path d="M20.5 10.5L20.5 20.5L20.5 30.5L20.5 40.5L20.5 50.5L20.5 60.5L20.5 70.5L20.5 80.5L20.5 90.5" stroke="#A0A4A3" stroke-width="2"/>
<path d="M10.5 50.5L30.5 50.5" stroke="#A0A4A3" stroke-width="2"/>
<path d="M20.5 10.5L20.5 20.5L20.5 30.5L20.5 40.5L20.5 50.5L20.5 60.5L20.5 70.5L20.5 80.5L20.5 90.5" stroke="#A0A4A3" stroke-width="2"/>
<path d="M10.5 50.5L30.5 50.5" stroke="#A0A4A3" stroke-width="2"/>
<path d="M20.5 10.5L20.5 20.5L20.5 30.5L20.5 40.5L20.5 50.5L20.5 60.5L20.5 70.5L20.5 80.5L20.5 90.5" stroke="#A0A4A3" stroke-width="2"/>
<path d="M10.5 50.5L30.5 50.5" stroke="#A0A4A3" stroke-width="2"/>
<path d="M20.5 10.5L20.5 20.5L20.5 30.5L20.5 40.5L20.5 50.5L20.5 60.5L20.5 70.5L20.5 80.5L20.5 90.5" stroke="#A0A4A3" stroke-width="2"/>
<path d="M10.5 50.5L30.5 50.5" stroke="#A0A4A3" stroke-width="2"/>
<path d="M20.5 10.5L20.5 20.5L20.5 30.5L20.5 40.5L20.5 50.5L20.5 60.5L20.5 70.5L20.5 80.5L20.5 90.5" stroke="#A0A4A3" stroke-width="2"/>
<path d="M10.5 50.5L30.5 50.5" stroke="#A0A4A3" stroke-width="2"/>
<path d="M20.5 10.5L20.5 20.5L20.5 30.5L20.5 40.5L20.5 50.5L20.5 60.5L20.5 70.5L20.5 80.5L20.5 90.5" stroke="#A0A4A3" stroke-width="2"/>
<path d="M10.5 50.5L30.5 50.5" stroke="#A0A4A3" stroke-width="2"/>
<path d="M20.5 10.5L20.5 20.5L20.5 30.5L20.5 40.5L20.5 50.5L20.5 60.5L20.5 70.5L20.5 80.5L20.5 90.5" stroke="#A0A4A3" stroke-width="2"/>
<path d="M10.5 50.5L30.5 50.5" stroke="#A0A4A3" stroke-width="2"/>
<path d="M20.5 10.5L20.5 20.5L20.5 30.5L20.5 40.5L20.5 50.5L20.5 60.5L20.5 70.5L20.5 80.5L20.5 90.5" stroke="#A0A4A3" stroke-width="2"/>
<path d="M10.5 50.5L30.5 50.5" stroke="#A0A4A3" stroke-width="2"/>
<path d="M20.5 10.5L20.5 20.5L20.5 30.5L20.5 40.5L20.5 50.5L20.5 60.5L20.5 70.5L20.5 80.5L20.5 90.5" stroke="#A0A4A3" stroke-width="2"/>
<path d="M10.5 50.5L30.5 50.5" stroke="#A0A4A3" stroke-width="2"/>
<path d="M20.5 10.5L20.5 20.5L20.5 30.5L20.5 40.5L20.5 50.5L20.5 60.5L20.5 70.5L20.5 80.5L20.5 90.5" stroke="#A0A4A3" stroke-width="2"/>
<path d="M10.5 50.5L30.5 50.5" stroke="#A0A4A3" stroke-width="2"/>
<path d="M20.5 10.5L20.5 20.5L20.5 30.5L20.5 40.5L20.5 50.5L20.5 60.5L20.5 70.5L20.5 80.5L20.5 90.5" stroke="#A0A4A3" stroke-width="2"/>
<path d="M10.5 50.5L30.5 50.5" stroke="#A0A4A3" stroke-width="2"/>
<path d="M20.5 10.5L20.5 20.5L20.5 30.5L20.5 40.5L20.5 50.5L20.5 60.5L20.5 70.5L20.5 80.5L20.5 90.5" stroke="#A0A4A3" stroke-width="2"/>
<path d="M10.5 50.5L30.5 50.5" stroke="#A0A4A3" stroke-width="2"/>
<path d="M20.5 10.5L20.5 20.5L20.5 30.5L20.5 40.5L20.5 50.5L20.5 60.5L20.5 70.5L20.5 80.5L20.5 90.5" stroke="#A0A4A3" stroke-width="2"/>
<path d="M10.5 50.5L30.5 50.5" stroke="#A0A4A3" stroke-width="2"/>
<path d="M20.5 10.5L20.5 20.5L20.5 30.5L20.5 40.5L20.5 50.5L20.5 60.5L20.5 70.5L20.5 80.5L20.5 90.5" stroke="#A0A4A3" stroke-width="2"/>
<path d="M10.5 50.5L30.5 50.5" stroke="#A0A4A3" stroke-width="2"/>
<path d="M20.5 10.5L20.5 20.5L20.5 30.5L20.5 40.5L20.5 50.5L20.5 60.5L20.5 70.5L20.5 80.5L20.5 90.5" stroke="#A0A4A3" stroke-width="2"/>
<path d="M10.5 50.5L30.5 50.5" stroke="#A0A4A3" stroke-width="2"/>
<path d="M20.5 10.5L20.5 20.5L20.5 30.5L20.5 40.5L20.5 50.5L20.5 60.5L20.5 70.5L20.5 80.5L20.5 90.5" stroke="#A0A4A3" stroke-width="2"/>
<path d="M10.5 50.5L30.5 50.5" stroke="#A0A4A3" stroke-width="2"/>
<path d="M20.5 10.5L20.5 20.5L20.5 30.5L20.5 40.5L20.5 50.5L20.5 60.5L20.5 70.5L20.5 80.5L20.5 90.5" stroke="#A0A4A3" stroke-width="2"/>
<path d="M10.5 50.5L30.5 50.5" stroke="#A0A4A3" stroke-width="2"/>
<path d="M20.5 10.5L20.5 20.5L20.5 30.5L20.5 40.5L20.5 50.5L20.5 60.5L20.5 70.5L20.5 80.5L20.5 90.5" stroke="#A0A4A3" stroke-width="2"/>
<path d="M10.5 50.5L30.5 50.5" stroke="#A0A4A3" stroke-width="2"/>
<path d="M20.5 10.5L20.5 20.5L20.5 30.5L20.5 40.5L20.5 50.5L20.5 60.5L20.5 70.5L20.5 80.5L20.5 90.5" stroke="#A0A4A3" stroke-width="2"/>
<path d="M10.5 50.5L30.5 50.5" stroke="#A0A4A3" stroke-width="2"/>
<path d="M20.5 10.5L20.5 20.5L20.5 30.5L20.5 40.5L20.5 50.5L20.5 60.5L20.5 70.5L20.5 80.5L20.5 90.5" stroke="#A0A4A3" stroke-width="2"/>
<path d="M10.5 50.5L30.5 50.5" stroke="#A0A4A3" stroke-width="2"/>
<path d="M20.5 10.5L20.5 20.5L20.5 30.5L20.5 40.5L20.5 50.5L20.5 60.5L20.5 70.5L20.5 80.5L20.5 90.5" stroke="#A0A4A3" stroke-width="2"/>
<path d="M10.5 50.5L30.5 50.5" stroke="#A0A4A3" stroke-width="2"/>
<path d="M20.5 10.5L20.5 20.5L20.5 30.5L20.5 40.5L20.5 50.5L20.5 60.5L20.5 70.5L20.5 80.5L20.5 90.5" stroke="#A0A4A3" stroke-width="2"/>
<path d="M10.5 50.5L30.5 50.5" stroke="#A0A4A3" stroke-width="2"/>
<path d="M20.5 10.5L20.5 20.5L20.5 30.5L20.5 40.5L20.5 50.5L20.5 60.5L20.5 70.5L20.5 80.5L20.5 90.5" stroke="#A0A4A3" stroke-width="2"/>
<path d="M10.5 50.5L30.5 50.5" stroke="#A0A4A3" stroke-width="2"/>
<path d="M20.5 10.5L20.5 20.5L20.5 30.5L20.5 40.5L20.5 50.5L20.5 60.5L20.5 70.5L20.5 80.5L20.5 90.5" stroke="#A0A4A3" stroke-width="2"/>
<path d="M10.5 50.5L30.5 50.5" stroke="#A0A4A3" stroke-width="2"/>
<path d="M20.5 10.5L20.5 20.5L20.5 30.5L20.5 40.5L20.5 50.5L20.5 60.5L20.5 70.5L20.5 80.5L20.5 90.5" stroke="#A0A4A3" stroke-width="2"/>
<path d="M10.5 50.5L30.5 50.5" stroke="#A0A4A3" stroke-width="2"/>
<path d="M20.5 10.5L20.5 20.5L20.5 30.5L20.5 40.5L20.5 50.5L20.5 60.5L20.5 70.5L20.5 80.5L20.5 90.5" stroke="#A0A4A3" stroke-width="2"/>
<path d="M10.5 50.5L30.5 50.5" stroke="#A0A4A3" stroke-width="2"/>
<path d="M20.5 10.5L20.5 20.5L20.5 30.5L20.5 40.5L20.5 50.5L20.5 60.5L20.5 70.5L20.5 80.5L20.5 90.5" stroke="#A0A4A3" stroke-width="2"/>
<path d="M10.5 50.5L30.5 50.5" stroke="#A0A4A3" stroke-width="2"/>
<path d="M20.5 10.5L20.5 20.5L20.5 30.5L20.5 40.5L20.5 50.5L20.5 60.5L20.5 70.5L20.5 80.5L20.5 90.5" stroke="#A0A4A3" stroke-width="2"/>
<path d="M10.5 50.5L30.5 50.5" stroke="#A0A4A3" stroke-width="2"/>
<path d="M20.5 10.5L20.5 20.5L20.5 30.5L20.5 40.5L20.5 50.5L20.5 60.5L20.5 70.5L20.5 80.5L20.5 90.5" stroke="#A0A4A3" stroke-width="2"/>
<path d="M10.5 50.5L30.5 50.5" stroke="#A0A4A3" stroke-width="2"/>
<path d="M20.5 10.5L20.5 20.5L20.5 30.5L20.5 40.5L20.5 50.5L20.5 60.5L20.5 70.5L20.5 80.5L20.5 90.5" stroke="#A0A4A3" stroke-width="2"/>
<path d="M10.5 50.5L30.5 50.5" stroke="#A0A4A3" stroke-width="2"/>
<path d="M20.5 10.5L20.5 20.5L20.5 30.5L20.5 40.5L20.5 50.5L20.5 60.5L20.5 70.5L20.5 80.5L20.5 90.5" stroke="#A0A4A3" stroke-width="2"/>
<path d="M10.5 50.5L30.5 50.5" stroke="#A0A4A3" stroke-width="2"/>
<path d="M20.5 10.5L20.5 20.5L20.5 30.5L20.5 40.5L20.5 50.5L20.5 60.5L20.5 70.5L20.5 80.5L20.5 90.5" stroke="#A0A4A3" stroke-width="2"/>
<path d="M10.5 50.5L30.5 50.5" stroke="#A0A4A3" stroke-width="2"/>
<path d="M20.5 10.5L20.5 20.5L20.5 30.5L20.5 40.5L20.5 50.5L20.5 60.5L20.5 70.5L20.5 80.5L20.5 90.5" stroke="#A0A4A3" stroke-width="2"/>
<path d="M10.5 50.5L30.5 50.5" stroke="#A0A4A3" stroke-width="2"/>
<path d="M20.5 10.5L20.5 20.5L20.5 30.5L20.5 40.5L20.5 50.5L20.5 60.5L20.5 70.5L20.5 80.5L20.5 90.5" stroke="#A0A4A3" stroke-width="2"/>
<path d="M10.5 50.5L30.5 50.5" stroke="#A0A4A3" stroke-width="2"/>
<path d="M20.5 10.5L20.5 20.5L20.5 30.5L20.5 40.5L20.5 50.5L20.5 60.5L20.5 70.5L20.5 80.5L20.5 90.5" stroke="#A0A4A3" stroke-width="2"/>
<path d="M10.5 50.5L30.5 50.5" stroke="#A0A4A3" stroke-width="2"/>
<path d="M20.5 10.5L20.5 20.5L20.5 30.5L20.5 40.5L20.5 50.5L20.5 60.5L20.5 70.5L20.5 80.5L20.5 90.5" stroke="#A0A4A3" stroke-width="2"/>
<path d="M10.5 50.5L30.5 50.5" stroke="#A0A4A3" stroke-width="2"/>
<path d="M20.5 10.5L20.5 20.5L20.5 30.5L20.5 40.5L20.5 50.5L20.5 60.5L20.5 70.5L20.5 80.5L20.5 90.5" stroke="#A0A4A3" stroke-width="2"/>
<path d="M10.5 50.5L30.5 50.5" stroke="#A0A4A3" stroke-width="2"/>
<path d="M20.5 10.5L20.5 20.5L20.5 30.5L20.5 40.5L20.5 50.5L20.5 60.5L20.5 70.5L20.5 80.5L20.5 90.5" stroke="#A0A4A3" stroke-width="2"/>
<path d="M10.5 50.5L30.5 50.5" stroke="#A0A4A3" stroke-width="2"/>
<path d="M20.5 10.5L20.5 20.5L20.5 30.5L20.5 40.5L20.5 50.5L20.5 60.5L20.5 70.5L20.5 80.5L20.5 90.5" stroke="#A0A4A3" stroke-width="2"/>
<path d="M10.5 50.5L30.5 50.5" stroke="#A0A4A3" stroke-width="2"/>
<path d="M20.5 10.5L20.5 20.5L20.5 30.5L20.5 40.5L20.5 50.5L20.5 60.5L20.5 70.5L20.5 80.5L20.5 90.5" stroke="#A0A4A3" stroke-width="2"/>
<path d="M10.5 50.5L30.5 50.5" stroke="#A0A4A3" stroke-width="2"/>
<path d="M20.5 10.5L20.5 20.5L20.5 30.5L20.5 40.5L20.5 50.5L20.5 60.5L20.5 70.5L20.5 80.5L20.5 90.5" stroke="#A0A4A3" stroke-width="2"/>
<path d="M10.5 50.5L30.5 50.5" stroke="#A0A4A3" stroke-width="2"/>
<path d="M20.5 10.5L20.5 20.5L20.5 30.5L20.5 40.5L20.5 50.5L20.5 60.5L20.5 70.5L20.5 80.5L20.5 90.5" stroke="#A0A4A3" stroke-width="2"/>
<path d="M10.5 50.5L30.5 50.5" stroke="#A0A4A3" stroke-width="2"/>
<path d="M20.5 10.5L20.5 20.5L20.5 30.5L20.5 40.5L20.5 50.5L20.5 60.5L20.5 70.5L20.5 80.5L20.5 90.5" stroke="#A0A4A3" stroke-width="2"/>
<path d="M10.5 50.5L30.5 50.5" stroke="#A0A4A3" stroke-width="2"/>
<path d="M20.5 10.5L20.5 20.5L20.5 30.5L20.5 40.5L20.5 50.5L20.5 60.5L20.5 70.5L20.5 80.5L20.5 90.5" stroke="#A0A4A3" stroke-width="2"/>
<path d="M10.5 50.5L30.5 50.5" stroke="#A0A4A3" stroke-width="2"/>
<path d="M20.5 10.5L20.5 20.5L20.5 30.5L20.5 40.5L20.5 50.5L20.5 60.5L20.5 70.5L20.5 80.5L20.5 90.5" stroke="#A0A4A3" stroke-width="2"/>
<path d="M10.5 50.5L30.5 50.5" stroke="#A0A4A3" stroke-width="2"/>
<path d="M20.5 10.5L20.5 20.5L20.5 30.5L20.5 40.5L20.5 50.5L20.5 60.5L20.5 70.5L20.5 80.5L20.5 90.5" stroke="#A0A4A3" stroke-width="2"/>
<path d="M10.5 50.5L30.5 50.5" stroke="#A0A4A3" stroke-width="2"/>
<path d="M20.5 10.5L20.5 20.5L20.5 30.5L20.5 40.5L20.5 50.5L20.5 60.5L20.5 70.5L20.5 80.5L20.5 90.5" stroke="#A0A4A3" stroke-width="2"/>
<path d="M10.5 50.5L30.5 50.5" stroke="#A0A4A3" stroke-width="2"/>
<path d="M20.5 10.5L20.5 20.5L20.5 30.5L20.5 40.5L20.5 50.5L20.5 60.5L20.5 70.5L20.5 80.5L20.5 90.5" stroke="#A0A4A3" stroke-width="2"/>
<path d="M10.5 50.5L30.5 50.5" stroke="#A0A4A3" stroke-width="2"/>
<path d="M20.5 10.5L20.5 20.5L20.5 30.5L20.5 40.5L20.5 50.5L20.5 60.5L20.5 70.5L20.5 80.5L20.5 90.5" stroke="#A0A4A3" stroke-width="2"/>
<path d="M10.5 50.5L30.5 50.5" stroke="#A0A4A3" stroke-width="2"/>
<path d="M20.5 10.5L20.5 20.5L20.5 30.5L20.5 40.5L20.5 50.5L20.5 60.5L20.5 70.5L20.5 80.5L20.5 90.5" stroke="#A0A4A3" stroke-width="2"/>
<path d="M10.5 50.5L30.5 50.5" stroke="#A0A4A3" stroke-width="2"/>
<path d="M20.5 10.5L20.5 20.5L20.5 30.5L20.5 40.5L20.5 50.5L20.5 60.5L20.5 70.5L20.5 80.5L20.5 90.5" stroke="#A0A4A3" stroke-width="2"/>
<path d="M10.5 50.5L30.5 50.5" stroke="#A0A4A3" stroke-width="2"/>
<path d="M20.5 10.5L20.5 20.5L20.5 30.5L20.5 40.5L20.5 50.5L20.5 60.5L20.5 70.5L20.5 80.5L20.5 90.5" stroke="#A0A4A3" stroke-width="2"/>
<path d="M10.5 50.5L30.5 50.5" stroke="#A0A4A3" stroke-width="2"/>
<path d="M20.5 10.5L20.5 20.5L20.5 30.5L20.5 40.5L20.5 50.5L20.5 60.5L20.5 70.5L20.5 80.5L20.5 90.5" stroke="#A0A4A3" stroke-width="2"/>
<path d="M10.5 50.5L30.5 50.5" stroke="#A0A4A3" stroke-width="2"/>
<path d="M20.5 10.5L20.5 20.5L20.5 30.5L20.5 40.5L20.5 50.5L20.5 60.5L20.5 70.5L20.5 80.5L20.5 90.5" stroke="#A0A4A3" stroke-width="2"/>
<path d="M10.5 50.5L30.5 50.5" stroke="#A0A4A3" stroke-width="2"/>
<path d="M20.5 10.5L20.5 20.5L20.5 30.5L20.5 40.5L20.5 50.5L20.5 60.5L20.5 70.5L20.5 80.5L20.5 90.5" stroke="#A0A4A3" stroke-width="2"/>
<path d="M10.5 50.5L30.5 50.5" stroke="#A0A4A3" stroke-width="2"/>
<path d="M20.5 10.5L20.5 20.5L20.5 30.5L20.5 40.5L20.5 50.5L20.5 60.5L20.5 70.5L20.5 80.5L20.5 90.5" stroke="#A0A4A3" stroke-width="2"/>
<path d="M10.5 50.5L30.5 50.5" stroke="#A0A4A3" stroke-width="2"/>
<path d="M20.5 10.5L20.5 20.5L20.5 30.5L20.5 40.5L20.5 50.5L20.5 60.5L20.5 70.5L20.5 80.5L20.5 90.5" stroke="#A0A4A3" stroke-width="2"/>
<path d="M10.5 50.5L30.5 50.5" stroke="#A0A4A3" stroke-width="2"/>
<path d="M20.5 10.5L20.5 20.5L20.5 30.5L20.5 40.5L20.5 50.5L20.5 60.5L20.5 70.5L20.5 80.5L20.5 90.5" stroke="#A0A4A3" stroke-width="2"/>
<path d="M10.5 50.5L30.5 50.5" stroke="#A0A4A3" stroke-width="2"/>
<path d="M20.5 10.5L20.5 20.5L20.5 30.5L20.5 40.5L20.5 50.5L20.5 60.5L20.5 70.5L20.5 80.5L20.5 90.5" stroke="#A0A4A3" stroke-width="2"/>
<path d="M10.5 50.5L30.5 50.5" stroke="#A0A4A3" stroke-width="2"/>
<path d="M20.5 10.5L20.5 20.5L20.5 30.5L20.5 40.5L20.5 50.5L20.5 60.5L20.5 70.5L20.5 80.5L20.5 90.5" stroke="#A0A4A3" stroke-width="2"/>
<path d="M10.5 50.5L30.5 50.5" stroke="#A0A4A3" stroke-width="2"/>
<path d="M20.5 10.5L20.5 20.5L20.5 30.5L20.5 40.5L20.5 50.5L20.5 60.5L20.5 70.5L20.5 80.5L20.5 90.5" stroke="#A0A4A3" stroke-width="2"/>
<path d="M10.5 50.5L30.5 50.5" stroke="#A0A4A3" stroke-width="2"/>
<path d="M20.5 10.5L20.5 20.5L20.5 30.5L20.5 40.5L20.5 50.5L20.5 60.5L20.5 70.5L20.5 80.5L20.5 90.5" stroke="#A0A4A3" stroke-width="2"/>
<path d="M10.5 50.5L30.5 50.5" stroke="#A0A4A3" stroke-width="2"/>
<path d="M20.5 10.5L20.5 20.5L20.5 30.5L20.5 40.5L20.5 50.5L20.5 60.5L20.5 70.5L20.5 80.5L20.5 90.5" stroke="#A0A4A3" stroke-width="2"/>
<path d="M10.5 50.5L30.5 50.5" stroke="#A0A4A3" stroke-width="2"/>
<path d="M20.5 10.5L20.5 20.5L20.5 30.5L20.5 40.5L20.5 50.5L20.5 60.5L20.5 70.5L20.5 80.5L20.5 90.5" stroke="#A0A4A3" stroke-width="2"/>
<path d="M10.5 50.5L30.5 50.5" stroke="#A0A4A3" stroke-width="2"/>
<path d="M20.5 10.5L20.5 20.5L20.5 30.5L20.5 40.5L20.5 50.5L20.5 60.5L20.5 70.5L20.5 80.5L20.5 90.5" stroke="#A0A4A3" stroke-width="2"/>
<path d="M10.5 50.5L30.5 50.5" stroke="#A0A4A3" stroke-width="2"/>
<path d="M20.5 10.5L20.5 20.5L20.5 30.5L20.5 40.5L20.5 50.5L20.5 60.5L20.5 70.5L20.5 80.5L20.5 90.5" stroke="#A0A4A3" stroke-width="2"/>
<path d="M10.5 50.5L30.5 50.5" stroke="#A0A4A3" stroke-width="2"/>
<path d="M20.5 10.5L20.5 20.5L20.5 30.5L20.5 40.5L20.5 50.5L20.5 60.5L20.5 70.5L20.5 80.5L20.5 90.5" stroke="#A0A4A3" stroke-width="2"/>
<path d="M10.5 50.5L30.5 50.5" stroke="#A0A4A3" stroke-width="2"/>
<path d="M20.5 10.5L20.5 20.5L20.5 30.5L20.5 40.5L20.5 50.5L20.5 60.5L20.5 70.5L20.5 80.5L20.5 90.5" stroke="#A0A4A3" stroke-width="2"/>
<path d="M10.5 50.5L30.5 50.5" stroke="#A0A4A3" stroke-width="2"/>
<path d="M20.5 10.5L20.5 20.5L20.5 30.5L20.5 40.5L20.5 50.5L20.5 60.5L20.5 70.5L20.5 80.5L20.5 90.5" stroke="#A0A4A3" stroke-width="2"/>
<path d="M10.5 50.5L30.5 50.5" stroke="#A0A4A3" stroke-width="2"/>
<path d="M20.5 10.5L20.5 20.5L20.5 30.5L20.5 40.5L20.5 50.5L20.5 60.5L20.5 70.5L20.5 80.5L20.5 90.5" stroke="#A0A4A3" stroke-width="2"/>
<path d="M10.5 50.5L30.5 50.5" stroke="#A0A4A3" stroke-width="2"/>
<path d="M20.5 10.5L20.5 20.5L20.5 30.5L20.5 40.5L20.5 50.5L20.5 60.5L20.5 70.5L20.5 80.5L20.5 90.5" stroke="#A0A4A3" stroke-width="2"/>
<path d="M10.5 50.5L30.5 50.5" stroke="#A0A4A3" stroke-width="2"/>
<path d="M20.5 10.5L20.5 20.5L20.5 30.5L20.5 40.5L20.5 50.5L20.5 60.5L20.5 70.5L20.5 80.5L20.5 90.5" stroke="#A0A4A3" stroke-width="2"/>
<path d="M10.5 50.5L30.5 50.5" stroke="#A0A4A3" stroke-width="2"/>
<path d="M20.5 10.5L20.5 20.5L20.5 30.5L20.5 40.5L20.5 50.5L20.5 60.5L20.5 70.5L20.5 80.5L20.5 90.5" stroke="#A0A4A3" stroke-width="2"/>
<path d="M10.5 50.5L30.5 50.5" stroke="#A0A4A3" stroke-width="2"/>
<path d="M20.5 10.5L20.5 20.5L20.5 30.5L20.5 40.5L20.5 50.5L20.5 60.5L20.5 70.5L20.5 80.5L20.5 90.5" stroke="#A0A4A3" stroke-width="2"/>
<path d="M10.5 50.5L30.5 50.5" stroke="#A0A4A3" stroke-width="2"/>
<path d="M20.5 10.5L20.5 20.5L20.5 30.5L20.5 40.5L20.5 50.5L20.5 60.5L20.5 70.5L20.5 80.5L20.5 90.5" stroke="#A0A4A3" stroke-width="2"/>
<path d="M10.5 50.5L30.5 50.5" stroke="#A0A4A3" stroke-width="2"/>
<path d="M20.5 10.5L20.5 20.5L20.5 30.5L20.5 40.5L20.5 50.5L20.5 60.5L20.5 70.5L20.5 80.5L20.5 90.5" stroke="#A0A4A3" stroke-width="2"/>
<path d="M10.5 50.5L30.5 50.5" stroke="#A0A4A3" stroke-width="2"/>
<path d="M20.5 10.5L20.5 20.5L20.5 30.5L20.5 40.5L20.5 50.5L20.5 60.5L20.5 70.5L20.5 80.5L20.5 90.5" stroke="#A0A4A3" stroke-width="2"/>
<path d="M10.5 50.5L30.5 50.5" stroke="#A0A4A3" stroke-width="2"/>
<path d="M20.5 10.5L20.5 20.5L20.5 30.5L20.5 40.5L20.5 50.5L20.5 60.5L20.5 70.5L20.5 80.5L20.5 90.5" stroke="#A0A4A3" stroke-width="2"/>
<path d="M10.5 50.5L30.5 50.5" stroke="#A0A4A3" stroke-width="2"/>
<path d="M20.5 10.5L20.5 20.5L20.5 30.5L20.5 40.5L20.5 50.5L20.5 60.5L20.5 70.5L20.5 80.5L20.5 90.5" stroke="#A0A4A3" stroke-width="2"/>
<path d="M10.5 50.5L30.5 50.5" stroke="#A0A4A3" stroke-width="2"/>
<path d="M20.5 10.5L20.5 20.5L20.5 30.5L20.5 40.5L20.5 50.5L20.5 60.5L20.5 70.5L20.5 80.5L20.5 90.5" stroke="#A0A4A3" stroke-width="2"/>
<path d="M10.5 50.5L30.5 50.5" stroke="#A0A4A3" stroke-width="2"/>
<path d="M20.5 10.5L20.5 20.5L20.5 30.5L20.5 40.5L20.5 50.5L20.5 60.5L20.5 70.5L20.5 80.5L20.5 90.5" stroke="#A0A4A3" stroke-width="2"/>
<path d="M10.5 50.5L30.5 50.5" stroke="#A0A4A3" stroke-width="2"/>
<path d="M20.5 10.5L20.5 20.5L20.5 30.5L20.5 40.5L20.5 50.5L20.5 60.5L20.5 70.5L20.5 80.5L20.5 90.5" stroke="#A0A4A3" stroke-width="2"/>
<path d="M10.5 50.5L30.5 50.5" stroke="#A0A4A3" stroke-width="2"/>
<path d="M20.5 10.5L20.5 20.5L20.5 30.5L20.5 40.5L20.5 50.5L20.5 60.5L20.5 70.5L20.5 80.5L20.5 90.5" stroke="#A0A4A3" stroke-width="2"/>
<path d="M10.5 50.5L30.5 50.5" stroke="#A0A4A3" stroke-width="2"/>
<path d="M20.5 10.5L20.5 20.5L20.5 30.5L20.5 40.5L20.5 50.5L20.5 60.5L20.5 70.5L20.5 80.5L20.5 90.5" stroke="#A0A4A3" stroke-width="2"/>
<path d="M10.5 50.5L30.5 50.5" stroke="#A0A4A3" stroke-width="2"/>
<path d="M20.5 10.5L20.5 20.5L20.5 30.5L20.5 40.5L20.5 50.5L20.5 60.5L20.5 70.5L20.5 80.5L20.5 90.5" stroke="#A0A4A3" stroke-width="2"/>
<path d="M10.5 50.5L30.5 50.5" stroke="#A0A4A3" stroke-width="2"/>
<path d="M20.5 10.5L20.5 20.5L20.5 30.5L20.5 40.5L20.5 50.5L20.5 60.5L20.5 70.5L20.5 80.5L20.5 90.5" stroke="#A0A4A3" stroke-width="2"/>
<path d="M10.5 50.5L30.5 50.5" stroke="#A0A4A3" stroke-width="2"/>
<path d="M20.5 10.5L20.5 20.5L20.5 30.5L20.5 40.5L20.5 50.5L20.5 60.5L20.5 70.5L20.5 80.5L20.5 90.5" stroke="#A0A4A3" stroke-width="2"/>
<path d="M10.5 50.5L30.5 50.5" stroke="#A0A4A3" stroke-width="2"/>
<path d="M20.5 10.5L20.5 20.5L20.5 30.5L20.5 40.5L20.5 50.5L20.5 60.5L20.5 70.5L20.5 80.5L20.5 90.5" stroke="#A0A4A3" stroke-width="2"/>
<path d="M10.5 50.5L30.5 50.5" stroke="#A0A4A3" stroke-width="2"/>
<path d="M20.5 10.5L20.5 20.5L20.5 30.5L20.5 40.5L20.5 50.5L20.5 60.5L20.5 70.5L20.5 80.5L20.5 90.5" stroke="#A0A4A3" stroke-width="2"/>
<path d="M10.5 50.5L30.5 50.5" stroke="#A0A4A3" stroke-width="2"/>
<path d="M20.5 10.5L20.5 20.5L20.5 30.5L20.5 40.5L20.5 50.5L20.5 60.5L20.5 70.5L20.5 80.5L20.5 90.5" stroke="#A0A4A3" stroke-width="2"/>
<path d="M10.5 50.5L30.5 50.5" stroke="#A0A4A3" stroke-width="2"/>
<path d="M20.5 10.5L20.5 20.5L20.5 30.5L20.5 40.5L20.5 50.5L20.5 60.5L20.5 70.5L20.5 80.5L20.5 90.5" stroke="#A0A4A3" stroke-width="2"/>
<path d="M10.5 50.5L30.5 50.5" stroke="#A0A4A3" stroke-width="2"/>
<path d="M20.5 10.5L20.5 20.5L20.5 30.5L20.5 40.5L20.5 50.5L20.5 60.5L20.5 70.5L20.5 80.5L20.5 90.5" stroke="#A0A4A3" stroke-width="2"/>
<path d="M10.5 50.5L30.5 50.5" stroke="#A0A4A3" stroke-width="2"/>
<path d="M20.5 10.5L20.5 20.5L20.5 30.5L20.5 40.5L20.5 50.5L20.5 60.5L20.5 70.5L20.5 80.5L20.5 90.5" stroke="#A0A4A3" stroke-width="2"/>
<path d="M10.5 50.5L30.5 50.5" stroke="#A0A4A3" stroke-width="2"/>
<path d="M20.5 10.5L20.5 20.5L20.5 30.5L20.5 40.5L20.5 50.5L20.5 60.5L20.5 70.5L20.5 80.5L20.5 90.5" stroke="#A0A4A3" stroke-width="2"/>
<path d="M10.5 50.5L30.5 50.5" stroke="#A0A4A3" stroke-width="2"/>
<path d="M20.5 10.5L20.5 20.5L20.5 30.5L20.5 40.5L20.5 50.5L20.5 60.5L20.5 70.5L20.5 80.5L20.5 90.5" stroke="#A0A4A3" stroke-width="2"/>
<path d="M10.5 50.5L30.5 50.5" stroke="#A0A4A3" stroke-width="2"/>
<path d="M20.5 10.5L20.5 20.5L20.5 30.5L20.5 40.5L20.5 50.5L20.5 60.5L20.5 70.5L20.5 80.5L20.5 90.5" stroke="#A0A4A3" stroke-width="2"/>
<path d="M10.5 50.5L30.5 50.5" stroke="#A0A4A3" stroke-width="2"/>
<path d="M20.5 10.5L20.5 20.5L20.5 30.5L20.5 40.5L20.5 50.5L20.5 60.5L20.5 70.5L20.5 80.5L20.5 90.5" stroke="#A0A4A3" stroke-width="2"/>
<path d="M10.5 50.5L30.5 50.5" stroke="#A0A4A3" stroke-width="2"/>
<path d="M20.5 10.5L20.5 20.5L20.5 30.5L20.5 40.5L20.5 50.5L20.5 60.5L20.5 70.5L20.5 80.5L20.5 90.5" stroke="#A0A4A3" stroke-width="2"/>
<path d="M10.5 50.5L30.5 50.5" stroke="#A0A4A3" stroke-width="2"/>
<path d="M20.5 10.5L20.5 20.5L20.5 30.5L20.5 40.5L20.5 50.5L20.5 60.5L20.5 70.5L20.5 80.5L20.5 90.5" stroke="#A0A4A3" stroke-width="2"/>
<path d="M10.5 50.5L30.5 50.5" stroke="#A0A4A3" stroke-width="2"/>
<path d="M20.5 10.5L20.5 20.5L20.5 30.5L20.5 40.5L20.5 50.5L20.5 60.5L20.5 70.5L20.5 80.5L20.5 90.5" stroke="#A0A4A3" stroke-width="2"/>
<path d="M10.5 50.5L30.5 50.5" stroke="#A0A4A3" stroke-width="2"/>
<path d="M20.5 10.5L20.5 20.5L20.5 30.5L20.5 40.5L20.5 50.5L20.5 60.5L20.5 70.5L20.5 80.5L20.5 90.5" stroke="#A0A4A3" stroke-width="2"/>
<path d="M10.5 50.5L30.5 50.5" stroke="#A0A4A3" stroke-width="2"/>
<path d="M20.5 10.5L20.5 20.5L20.5 30.5L20.5 40.5L20.5 50.5L20.5 60.5L20.5 70.5L20.5 80.5L20.5 90.5" stroke="#A0A4A3" stroke-width="2"/>
<path d="M10.5 50.5L30.5 50.5" stroke="#A0A4A3" stroke-width="2"/>
<path d="M20.5 10.5L20.5 20.5L20.5 30.5L20.5 40.5L20.5 50.5L20.5 60.5L20.5 70.5L20.5 80.5L20.5 90.5" stroke="#A0A4A3" stroke-width="2"/>
<path d="M10.5 50.5L30.5 50.5" stroke="#A0A4A3" stroke-width="2"/>
<path d="M20.5 10.5L20.5 20.5L20.5 30.5L20.5 40.5L20.5 50.5L20.5 60.5L20.5 70.5L20.5 80.5L20.5 90.5" stroke="#A0A4A3" stroke-width="2"/>
<path d="M10.5 50.5L30.5 50.5" stroke="#A0A4A3" stroke-width="2"/>
<path d="M20.5 10.5L20.5 20.5L20.5 30.5L20.5 40.5L20.5 50.5L20.5 60.5L20.5 70.5L20.5 80.5L20.5 90.5" stroke="#A0A4A3" stroke-width="2"/>
<path d="M10.5 50.5L30.5 50.5" stroke="#A0A4A3" stroke-width="2"/>
<path d="M20.5 10.5L20.5 20.5L20.5 30.5L20.5 40.5L20.5 50.5L20.5 60.5L20.5 70.5L20.5 80.5L20.5 90.5" stroke="#A0A4A3" stroke-width="2"/>
<path d="M10.5 50.5L30.5 50.5" stroke="#A0A4A3" stroke-width="2"/>
<path d="M20.5 10.5L20.5 20.5L20.5 30.5L20.5 40.5L20.5 50.5L20.5 60.5L20.5 70.5L20.5 80.5L20.5 90.5" stroke="#A0A4A3" stroke-width="2"/>
<path d="M10.5 50.5L30.5 50.5" stroke="#A0A4A3" stroke-width="2"/>
<path d="M20.5 10.5L20.5 20.5L20.5 30.5L20.5 40.5L20.5 50.5L20.5 60.5L20.5 70.5L20.5 80.5L20.5 90.5" stroke="#A0A4A3" stroke-width="2"/>
<path d="M10.5 50.5L30.5 50.5" stroke="#A0A4A3" stroke-width="2"/>
<path d="M20.5 10.5L20.5 20.5L20.5 30.5L20.5 40.5L20.5 50.5L20.5 60.5L20.5 70.5L20.5 80.5L20.5 90.5" stroke="#A0A4A3" stroke-width="2"/>
<path d="M10.5 50.5L30.5 50.5" stroke="#A0A4A3" stroke-width="2"/>
<path d="M20.5 10.5L20.5 20.5L20.5 30.5L20.5 40.5L20.5 50.5L20.5 60.5L20.5 70.5L20.5 80.5L20.5 90.5" stroke="#A0A4A3" stroke-width="2"/>
<path d="M10.5 50.5L30.5 50.5" stroke="#A0A4A3" stroke-width="2"/>
<path d="M20.5 10.5L20.5 20.5L20.5 30.5L20.5 40.5L20.5 50.5L20.5 60.5L20.5 70.5L20.5 80.5L20.5 90.5" stroke="#A0A4A3" stroke-width="2"/>
<path d="M10.5 50.5L30.5 50.5" stroke="#A0A4A3" stroke-width="2"/>
<path d="M20.5 10.5L20.5 20.5L20.5 30.5L20.5 40.5L20.5 50.5L20.5 60.5L20.5 70.5L20.5 80.5L20.5 90.5" stroke="#A0A4A3" stroke-width="2"/>
<path d="M10.5 50.5L30.5 50.5" stroke="#A0A4A3" stroke-width="2"/>
<path d="M20.5 10.5L20.5 20.5L20.5 30.5L20.5 40.5L20.5 50.5L20.5 60.5L20.5 70.5L20.5 80.5L20.5 90.5" stroke="#A0A4A3" stroke-width="2"/>
<path d="M10.5 50.5L30.5 50.5" stroke="#A0A4A3" stroke-width="2"/>
<path d="M20.5 10.5L20.5 20.5L20.5 30.5L20.5 40.5L20.5 50.5L20.5 60.5L20.5 70.5L20.5 80.5L20.5 90.5" stroke="#A0A4A3" stroke-width="2"/>
<path d="M10.5 50.5L30.5 50.5" stroke="#A0A4A3" stroke-width="2"/>
<path d="M20.5 10.5L20.5 20.5L20.5 30.5L20.5 40.5L20.5 50.5L20.5 60.5L20.5 70.5L20.5 80.5L20.5 90.5" stroke="#A0A4A3" stroke-width="2"/>
<path d="M10.5 50.5L30.5 50.5" stroke="#A0A4A3" stroke-width="2"/>
<path d="M20.5 10.5L20.5 20.5L20.5 30.5L20.5 40.5L20.5 50.5L20.5 60.5L20.5 70.5L20.5 80.5L20.5 90.5" stroke="#A0A4A3" stroke-width="2"/>
<path d="M10.5 50.5L30.5 50.5" stroke="#A0A4A3" stroke-width="2"/>
<path d="M20.5 10.5L20.5 20.5L20.5 30.5L20.5 40.5L20.5 50.5L20.5 60.5L20.5 70.5L20.5 80.5L20.5 90.5" stroke="#A0A4A3" stroke-width="2"/>
<path d="M10.5 50.5L30.5 50.5" stroke="#A0A4A3" stroke-width="2"/>
<path d="M20.5 10.5L20.5 20.5L20.5 30.5L20.5 40.5L20.5 50.5L20.5 60.5L20.5 70.5L20.5 80.5L20.5 90.5" stroke="#A0A4A3" stroke-width="2"/>
<path d="M10.5 50.5L30.5 50.5" stroke="#A0A4A3" stroke-width="2"/>
<path d="M20.5 10.5L20.5 20.5L20.5 30.5L20.5 40.5L20.5 50.5L20.5 60.5L20.5 70.5L20.5 80.5L20.5 90.5" stroke="#A0A4A3" stroke-width="2"/>
<path d="M10.5 50.5L30.5 50.5" stroke="#A0A4A3" stroke-width="2"/>
<path d="M20.5 10.5L20.5 20.5L20.5 30.5L20.5 40.5L20.5 50.5L20.5 60.5L20.5 70.5L20.5 80.5L20.5 90.5" stroke="#A0A4A3" stroke-width="2"/>
<path d="M10.5 50.5L30.5 50.5" stroke="#A0A4A3" stroke-width="2"/>
<path d="M20.5 10.5L20.5 20.5L20.5 30.5L20.5 40.5L20.5 50.5L20.5 60.5L20.5 70.5L20.5 80.5L20.5 90.5" stroke="#A0A4A3" stroke-width="2"/>
<path d="M10.5 50.5L30.5 50.5" stroke="#A0A4A3" stroke-width="2"/>
<path d="M20.5 10.5L20.5 20.5L20.5 30.5L20.5 40.5L20.5 50.5L20.5 60.5L20.5 70.5L20.5 80.5L20.5 90.5" stroke="#A0A4A3" stroke-width="2"/>
<path d="M10.5 50.5L30.5 50.5" stroke="#A0A4A3" stroke-width="2"/>
<path d="M20.5 10.5L20.5 20.5L20.5 30.5L20.5 40.5L20.5 50.5L20.5 60.5L20.5 70.5L20.5 80.5L20.5 90.5" stroke="#A0A4A3" stroke-width="2"/>
<path d="M10.5 50.5L30.5 50.5" stroke="#A0A4A3" stroke-width="2"/>
<path d="M20.5 10.5L20.5 20.5L20.5 30.5L20.5 40.5L20.5 50.5L20.5 60.5L20.5 70.5L20.5 80.5L20.5 90.5" stroke="#A0A4A3" stroke-width="2"/>
<path d="M10.5 50.5L30.5 50.5" stroke="#A0A4A3" stroke-width="2"/>
<path d="M20.5 10.5L20.5 20.5L20.5 30.5L20.5 40.5L20.5 50.5L20.5 60.5L20.5 70.5L20.5 80.5L20.5 90.5" stroke="#A0A4A3" stroke-width="2"/>
<path d="M10.5 50.5L30.5 50.5" stroke="#A0A4A3" stroke-width="2"/>
<path d="M20.5 10.5L20.5 20.5L20.5 30.5L20.5 40.5L20.5 50.5L20.5 60.5L20.5 70.5L20.5 80.5L20.5 90.5" stroke="#A0A4A3" stroke-width="2"/>
<path d="M10.5 50.5L30.5 50.5" stroke="#A0A4A3" stroke-width="2"/>
<path d="M20.5 10.5L20.5 20.5L20.5 30.5L20.5 40.5L20.5 50.5L20.5 60.5L20.5 70.5L20.5 80.5L20.5 90.5" stroke="#A0A4A3" stroke-width="2"/>
<path d="M10.5 50.5L30.5 50.5" stroke="#A0A4A3" stroke-width="2"/>
<path d="M20.5 10.5L20.5 20.5L20.5 30.5L20.5 40.5L20.5 50.5L20.5 60.5L20.5 70.5L20.5 80.5L20.5 90.5" stroke="#A0A4A3" stroke-width="2"/>
<path d="M10.5 50.5L30.5 50.5" stroke="#A0A4A3" stroke-width="2"/>
<path d="M20.5 10.5L20.5 20.5L20.5 30.5L20.5 40.5L20.5 50.5L20.5 60.5L20.5 70.5L20.5 80.5L20.5 90.5" stroke="#A0A4A3" stroke-width="2"/>
<path d="M10.5 50.5L30.5 50.5" stroke="#A0A4A3" stroke-width="2"/>
<path d="M20.5 10.5L20.5 20.5L20.5 30.5L20.5 40.5L20.5 50.5L20.5 60.5L20.5 70.5L20.5 80.5L20.5 90.5" stroke="#A0A4A3" stroke-width="2"/>
<path d="M10.5 50.5L30.5 50.5" stroke="#A0A4A3" stroke-width="2"/>
<path d="M20.5 10.5L20.5 20.5L20.5 30.5L20.5 40.5L20.5 50.5L20.5 60.5L20.5 70.5L20.5 80.5L20.5 90.5" stroke="#A0A4A3" stroke-width="2"/>
<path d="M10.5 50.5L30.5 50.5" stroke="#A0A4A3" stroke-width="2"/>
<path d="M20.5 10.5L20.5 20.5L20.5 30.5L20.5 40.5L20.5 50.5L20.5 60.5L20.5 70.5L20.5 80.5L20.5 90.5" stroke="#A0A4A3" stroke-width="2"/>
<path d="M10.5 50.5L30.5 50.5" stroke="#A0A4A3" stroke-width="2"/>
<path d="M20.5 10.5L20.5 20.5L20.5 30.5L20.5 40.5L20.5 50.5L20.5 60.5L20.5 70.5L20.5 80.5L20.5 90.5" stroke="#A0A4A3" stroke-width="2"/>
<path d="M10.5 50.5L30.5 50.5" stroke="#A0A4A3" stroke-width="2"/>
<path d="M20.5 10.5L20.5 20.5L20.5 30.5L20.5 40.5L20.5 50.5L20.5 60.5L20.5 70.5L20.5 80.5L20.5 90.5" stroke="#A0A4A3" stroke-width="2"/>
<path d="M10.5 50.5L30.5 50.5" stroke="#A0A4A3" stroke-width="2"/>
<path d="M20.5 10.5L20.5 20.5L20.5 30.5L20.5 40.5L20.5 50.5L20.5 60.5L20.5 70.5L20.5 80.5L20.5 90.5" stroke="#A0A4A3" stroke-width="2"/>
<path d="M10.5 50.5L30.5 50.5" stroke="#A0A4A3" stroke-width="2"/>
<path d="M20.5 10.5L20.5 20.5L20.5 30.5L20.5 40.5L20.5 50.5L20.5 60.5L20.5 70.5L20.5 80.5L20.5 90.5" stroke="#A0A4A3" stroke-width="2"/>
<path d="M10.5 50.5L30.5 50.5" stroke="#A0A4A3" stroke-width="2"/>
<path d="M20.5 10.5L20.5 20.5L20.5 30.5L20.5 40.5L20.5 50.5L20.5 60.5L20.5 70.5L20.5 80.5L20.5 90.5" stroke="#A0A4A3" stroke-width="2"/>
<path d="M10.5 50.5L30.5 50.5" stroke="#A0A4A3" stroke-width="2"/>
<path d="M20.5 10.5L20.5 20.5L20.5 30.5L20.5 40.5L20.5 50.5L20.5 60.5L20.5 70.5L20.5 80.5L20.5 90.5" stroke="#A0A4A3" stroke-width="2"/>
<path d="M10.5 50.5L30.5 50.5" stroke="#A0A4A3" stroke-width="2"/>
<path d="M20.5 10.5L20.5 20.5L20.5 30.5L20.5 40.5L20.5 50.5L20.5 60.5L20.5 70.5L20.5 80.5L20.5 90.5" stroke="#A0A4A3" stroke-width="2"/>
<path d="M10.5 50.5L30.5 50.5" stroke="#A0A4A3" stroke-width="2"/>
<path d="M20.5 10.5L20.5 20.5L20.5 30.5L20.5 40.5L20.5 50.5L20.5 60.5L20.5 70.5L20.5 80.5L20.5 90.5" stroke="#A0A4A3" stroke-width="2"/>
<path d="M10.5 50.5L30.5 50.5" stroke="#A0A4A3" stroke-width="2"/>
<path d="M20.5 10.5L20.5 20.5L20.5 30.5L20.5 40.5L20.5 50.5L20.5 60.5L20.5 70.5L20.5 80.5L20.5 90.5" stroke="#A0A4A3" stroke-width="2"/>
<path d="M10.5 50.5L30.5 50.5" stroke="#A0A4A3" stroke-width="2"/>
<path d="M20.5 10.5L20.5 20.5L20.5 30.5L20.5 40.5L20.5 50.5L20.5 60.5L20.5 70.5L20.5 80.5L20.5 90.5" stroke="#A0A4A3" stroke-width="2"/>
<path d="M10.5 50.5L30.5 50.5" stroke="#A0A4A3" stroke-width="2"/>
<path d="M20.5 10.5L20.5 20.5L20.5 30.5L20.5 40.5L20.5 50.5L20.5 60.5L20.5 70.5L20.5 80.5L20.5 90.5" stroke="#A0A4A3" stroke-width="2"/>
<path d="M10.5 50.5L30.5 50.5" stroke="#A0A4A3" stroke-width="2"/>
<path d="M20.5 10.5L20.5 20.5L20.5 30.5L20.5 40.5L20.5 50.5L20.5 60.5L20.5 70.5L20.5 80.5L20.5 90.5" stroke="#A0A4A3" stroke-width="2"/>
<path d="M10.5 50.5L30.5 50.5" stroke="#A0A4A3" stroke-width="2"/>
<path d="M20.5 10.5L20.5 20.5L20.5 30.5L20.5 40.5L20.5 50.5L20.5 60.5L20.5 70.5L20.5 80.5L20.5 90.5" stroke="#A0A4A3" stroke-width="2"/>
<path d="M10.5 50.5L30.5 50.5" stroke="#A0A4A3" stroke-width="2"/>
<path d="M20.5 10.5L20.5 20.5L20.5 30.5L20.5 40.5L20.5 50.5L20.5 60.5L20.5 70.5L20.5 80.5L20.5 90.5" stroke="#A0A4A3" stroke-width="2"/>
<path d="M10.5 50.5L30.5 50.5" stroke="#A0A4A3" stroke-width="2"/>
<path d="M20.5 10.5L20.5 20.5L20.5 30.5L20.5 40.5L20.5 50.5L20.5 60.5L20.5 70.5L20.5 80.5L20.5 90.5" stroke="#A0A4A3" stroke-width="2"/>
<path d="M10.5 50.5L30.5 50.5" stroke="#A0A4A3" stroke-width="2"/>
<path d="M20.5 10.5L20.5 20.5L20.5 30.5L20.5 40.5L20.5 50.5L20.5 60.5L20.5 70.5L20.5 80.5L20.5 90.5" stroke="#A0A4A3" stroke-width="2"/>
<path d="M10.5 50.5L30.5 50.5" stroke="#A0A4A3" stroke-width="2"/>
<path d="M20.5 10.5L20.5 20.5L20.5 30.5L20.5 40.5L20.5 50.5L20.5 60.5L20.5 70.5L20.5 80.5L20.5 90.5" stroke="#A0A4A3" stroke-width="2"/>
<path d="M10.5 50.5L30.5 50.5" stroke="#A0A4A3" stroke-width="2"/>
<path d="M20.5 10.5L20.5 20.5L20.5 30.5L20.5 40.5L20.5 50.5L20.5 60.5L20.5 70.5L20.5 80.5L20.5 90.5" stroke="#A0A4A3" stroke-width="2"/>
<path d="M10.5 50.5L30.5 50.5" stroke="#A0A4A3" stroke-width="2"/>
<path d="M20.5 10.5L20.5 20.5L20.5 30.5L20.5 40.5L20.5 50.5L20.5 60.5L20.5 70.5L20.5 80.5L20.5 90.5" stroke="#A0A4A3" stroke-width="2"/>
<path d="M10.5 50.5L30.5 50.5" stroke="#A0A4A3" stroke-width="2"/>
<path d="M20.5 10.5L20.5 20.5L20.5 30.5L20.5 40.5L20.5 50.5L20.5 60.5L20.5 70.5L20.5 80.5L20.5 90.5" stroke="#A0A4A3" stroke-width="2"/>
<path d="M10.5 50.5L30.5 50.5" stroke="#A0A4A3" stroke-width="2"/>
<path d="M20.5 10.5L20.5 20.5L20.5 30.5L20.5 40.5L20.5 50.5L20.5 60.5L20.5 70.5L20.5 80.5L20.5 90.5" stroke="#A0A4A3" stroke-width="2"/>
<path d="M10.5 50.5L30.5 50.5" stroke="#A0A4A3" stroke-width="2"/>
<path d="M20.5 10.5L20.5 20.5L20.5 30.5L20.5 40.5L20.5 50.5L20.5 60.5L20.5 70.5L20.5 80.5L20.5 90.5" stroke="#A0A4A3" stroke-width="2"/>
<path d="M10.5 50.5L30.5 50.5" stroke="#A0A4A3" stroke-width="2"/>
<path d="M20.5 10.5L20.5 20.5L20.5 30.5L20.5 40.5L20.5 50.5L20.5 60.5L20.5 70.5L20.5 80.5L20.5 90.5" stroke="#A0A4A3" stroke-width="2"/>
<path d="M10.5 50.5L30.5 50.5" stroke="#A0A4A3" stroke-width="2"/>
<path d="M20.5 10.5L20.5 20.5L20.5 30.5L20.5 40.5L20.5 50.5L20.5 60.5L20.5 70.5L20.5 80.5L20.5 90.5" stroke="#A0A4A3" stroke-width="2"/>
<path d="M10.5 50.5L30.5 50.5" stroke="#A0A4A3" stroke-width="2"/>
<path d="M20.5 10.5L20.5 20.5L20.5 30.5L20.5 40.5L20.5 50.5L20.5 60.5L20.5 70.5L20.5 80.5L20.5 90.5" stroke="#A0A4A3" stroke-width="2"/>
<path d="M10.5 50.5L30.5 50.5" stroke="#A0A4A3" stroke-width="2"/>
<path d="M20.5 10.5L20.5 20.5L20.5 30.5L20.5 40.5L20.5 50.5L20.5 60.5L20.5 70.5L20.5 80.5L20.5 90.5" stroke="#A0A4A3" stroke-width="2"/>
<path d="M10.5 50.5L30.5 50.5" stroke="#A0A4A3" stroke-width="2"/>
<path d="M20.5 10.5L20.5 20.5L20.5 30.5L20.5 40.5L20.5 50.5L20.5 60.5L20.5 70.5L20.5 80.5L20.5 90.5" stroke="#A0A4A3" stroke-width="2"/>
<path d="M10.5 50.5L30.5 50.5" stroke="#A0A4A3" stroke-width="2"/>
<path d="M20.5 10.5L20.5 20.5L20.5 30.5L20.5 40.5L20.5 50.5L20.5 60.5L20.5 70.5L20.5 80.5L20.5 90.5" stroke="#A0A4A3" stroke-width="2"/>
<path d="M10.5 50.5L30.5 50.5" stroke="#A0A4A3" stroke-width="2"/>
<path d="M20.5 10.5L20.5 20.5L20.5 30.5L20.5 40.5L20.5 50.5L20.5 60.5L20.5 70.5L20.5 80.5L20.5 90.5" stroke="#A0A4A3" stroke-width="2"/>
<path d="M10.5 50.5L30.5 50.5" stroke="#A0A4A3" stroke-width="2"/>
<path d="M20.5 10.5L20.5 20.5L20.5 30.5L20.5 40.5L20.5 50.5L20.5 60.5L20.5 70.5L20.5 80.5L20.5 90.5" stroke="#A0A4A3" stroke-width="2"/>
<path d="M10.5 50.5L30.5 50.5" stroke="#A0A4A3" stroke-width="2"/>
<path d="M20.5 10.5L20.5 20.5L20.5 30.5L20.5 40.5L20.5 50.5L20.5 60.5L20.5 70.5L20.5 80.5L20.5 90.5" stroke="#A0A4A3" stroke-width="2"/>
<path d="M10.5 50.5L30.5 50.5" stroke="#A0A4A3" stroke-width="2"/>
<path d="M20.5 10.5L20.5 20.5L20.5 30.5L20.5 40.5L20.5 50.5L20.5 60.5L20.5 70.5L20.5 80.5L20.5 90.5" stroke="#A0A4A3" stroke-width="2"/>
<path d="M10.5 50.5L30.5 50.5" stroke="#A0A4A3" stroke-width="2"/>
<path d="M20.5 10.5L20.5 20.5L20.5 30.5L20.5 40.5L20.5 50.5L20.5 60.5L20.5 70.5L20.5 80.5L20.5 90.5" stroke="#A0A4A3" stroke-width="2"/>
<path d="M10.5 50.5L30.5 50.5" stroke="#A0A4A3" stroke-width="2"/>
<path d="M20.5 10.5L20.5 20.5L20.5 30.5L20.5 40.5L20.5 50.5L20.5 60.5L20.5 70.5L20.5 80.5L20.5 90.5" stroke="#A0A4A3" stroke-width="2"/>
<path d="M10.5 50.5L30.5 50.5" stroke="#A0A4A3" stroke-width="2"/>
<path d="M20.5 10.5L20.5 20.5L20.5 30.5L20.5 40.5L20.5 50.5L20.5 60.5L20.5 70.5L20.5 80.5L20.5 90.5" stroke="#A0A4A3" stroke-width="2"/>
<path d="M10.5 50.5L30.5 50.5" stroke="#A0A4A3" stroke-width="2"/>
<path d="M20.5 10.5L20.5 20.5L20.5 30.5L20.5 40.5L20.5 50.5L20.5 60.5L20.5 70.5L20.5 80.5L20.5 90.5" stroke="#A0A4A3" stroke-width="2"/>
<path d="M10.5 50.5L30.5 50.5" stroke="#A0A4A3" stroke-width="2"/>
<path d="M20.5 10.5L20.5 20.5L20.5 30.5L20.5 40.5L20.5 50.5L20.5 60.5L20.5 70.5L20.5 80.5L20.5 90.5" stroke="#A0A4A3" stroke-width="2"/>
<path d="M10.5 50.5L30.5 50.5" stroke="#A0A4A3" stroke-width="2"/>
<path d="M20.5 10.5L20.5 20.5L20.5 30.5L20.5 40.5L20.5 50.5L20.5 60.5L20.5 70.5L20.5 80.5L20.5 90.5" stroke="#A0A4A3" stroke-width="2"/>
<path d="M10.5 50.5L30.5 50.5" stroke="#A0A4A3" stroke-width="2"/>
<path d="M20.5 10.5L20.5 20.5L20.5 30.5L20.5 40.5L20.5 50.5L20.5 60.5L20.5 70.5L20.5 80.5L20.5 90.5" stroke="#A0A4A3" stroke-width="2"/>
<path d="M10.5 50.5L30.5 50.5" stroke="#A0A4A3" stroke-width="2"/>
<path d="M20.5 10.5L20.5 20.5L20.5 30.5L20.5 40.5L20.5 50.5L20.5 60.5L20.5 70.5L20.5 80.5L20.5 90.5" stroke="#A0A4A3" stroke-width="2"/>
<path d="M10.5 50.5L30.5 50.5" stroke="#A0A4A3" stroke-width="2"/>
<path d="M20.5 10.5L20.5 20.5L20.5 30.5L20.5 40.5L20.5 50.5L20.5 60.5L20.5 70.5L20.5 80.5L20.5 90.5" stroke="#A0A4A3" stroke-width="2"/>
<path d="M10.5 50.5L30.5 50.5" stroke="#A0A4A3" stroke-width="2"/>
<path d="M20.5 10.5L20.5 20.5L20.5 30.5L20.5 40.5L20.5 50.5L20.5 60.5L20.5 70.5L20.5 80.5L20.5 90.5" stroke="#A0A4A3" stroke-width="2"/>
<path d="M10.5 50.5L30.5 50.5" stroke="#A0A4A3" stroke-width="2"/>
<path d="M20.5 10.5L20.5 20.5L20.5 30.5L20.5 40.5L20.5 50.5L20.5 60.5L20.5 70.5L20.5 80.5L20.5 90.5" stroke="#A0A4A3" stroke-width="2"/>
<path d="M10.5 50.5L30.5 50.5" stroke="#A0A4A3" stroke-width="2"/>
<path d="M20.5 10.5L20.5 20.5L20.5 30.5L20.5 40.5L20.5 50.5L20.5 60.5L20.5 70.5L20.5 80.5L20.5 90.5" stroke="#A0A4A3" stroke-width="2"/>
<path d="M10.5 50.5L30.5 50.5" stroke="#A0A4A3" stroke-width="2"/>
<path d="M20.5 10.5L20.5 20.5L20.5 30.5L20.5 40.5L20.5 50.5L20.5 60.5L20.5 70.5L20.5 80.5L20.5 90.5" stroke="#A0A4A3" stroke-width="2"/>
<path d="M10.5 50.5L30.5 50.5" stroke="#A0A4A3" stroke-width="2"/>
<path d="M20.5 10.5L20.5 20.5L20.5 30.5L20.5 40.5L20.5 50.5L20.5 60.5L20.5 70.5L20.5 80.5L20.5 90.5" stroke="#A0A4A3" stroke-width="2"/>
<path d="M10.5 50.5L30.5 50.5" stroke="#A0A4A3" stroke-width="2"/>
<path d="M20.5 10.5L20.5 20.5L20.5 30.5L20.5 40.5L20.5 50.5L20.5 60.5L20.5 70.5L20.5 80.5L20.5 90.5" stroke="#A0A4A3" stroke-width="2"/>
<path d="M10.5 50.5L30.5 50.5" stroke="#A0A4A3" stroke-width="2"/>
<path d="M20.5 10.5L20.5 20.5L20.5 30.5L20.5 40.5L20.5 50.5L20.5 60.5L20.5 70.5L20.5 80.5L20.5 90.5" stroke="#A0A4A3" stroke-width="2"/>
<path d="M10.5 50.5L30.5 50.5" stroke="#A0A4A3" stroke-width="2"/>
<path d="M20.5 10.5L20.5 20.5L20.5 30.5L20.5 40.5L20.5 50.5L20.5 60.5L20.5 70.5L20.5 80.5L20.5 90.5" stroke="#A0A4A3" stroke-width="2"/>
<path d="M10.5 50.5L30.5 50.5" stroke="#A0A4A3" stroke-width="2"/>
<path d="M20.5 10.5L20.5 20.5L20.5 30.5L20.5 40.5L20.5 50.5L20.5 60.5L20.5 70.5L20.5 80.5L20.5 90.5" stroke="#A0A4A3" stroke-width="2"/>
<path d="M10.5 50.5L30.5 50.5" stroke="#A0A4A3" stroke-width="2"/>
<path d="M20.5 10.5L20.5 20.5L20.5 30.5L20.5 40.5L20.5 50.5L20.5 60.5L20.5 70.5L20.5 80.5L20.5 90.5" stroke="#A0A4A3" stroke-width="2"/>
<path d="M10.5 50.5L30.5 50.5" stroke="#A0A4A3" stroke-width="2"/>
<path d="M20.5 10.5L20.5 20.5L20.5 30.5L20.5 40.5L20.5 50.5L20.5 60.5L20.5 70.5L20.5 80.5L20.5 90.5" stroke="#A0A4A3" stroke-width="2"/>
<path d="M10.5 50.5L30.5 50.5" stroke="#A0A4A3" stroke-width="2"/>
<path d="M20.5 10.5L20.5 20.5L20.5 30.5L20.5 40.5L20.5 50.5L20.5 60.5L20.5 70.5L20.5 80.5L20.5 90.5" stroke="#A0A4A3" stroke-width="2"/>
<path d="M10.5 50.5L30.5 50.5" stroke="#A0A4A3" stroke-width="2"/>
<path d="M20.5 10.5L20.5 20.5L20.5 30.5L20.5 40.5L20.5 50.5L20.5 60.5L20.5 70.5L20.5 80.5L20.5 90.5" stroke="#A0A4A3" stroke-width="2"/>
<path d="M10.5 50.5L30.5 50.5" stroke="#A0A4A3" stroke-width="2"/>
<path d="M20.5 10.5L20.5 20.5L20.5 30.5L20.5 40.5L20.5 50.5L20.5 60.5L20.5 70.5L20.5 80.5L20.5 90.5" stroke="#A0A4A3" stroke-width="2"/>
<path d="M10.5 50.5L30.5 50.5" stroke="#A0A4A3" stroke-width="2"/>
<path d="M20.5 10.5L20.5 20.5L20.5 30.5L20.5 40.5L20.5 50.5L20.5 60.5L20.5 70.5L20.5 80.5L20.5 90.5" stroke="#A0A4A3" stroke-width="2"/>
<path d="M10.5 50.5L30.5 50.5" stroke="#A0A4A3" stroke-width="2"/>
<path d="M20.5 10.5L20.5 20.5L20.5 30.5L20.5 40.5L20.5 50.5L20.5 60.5L20.5 70.5L20.5 80.5L20.5 90.5" stroke="#A0A4A3" stroke-width="2"/>
<path d="M10.5 50.5L30.5 50.5" stroke="#A0A4A3" stroke-width="2"/>
<path d="M20.5 10.5L20.5 20.5L20.5 30.5L20.5 40.5L20.5 50.5L20.5 60.5L20.5 70.5L20.5 80.5L20.5 90.5" stroke="#A0A4A3" stroke-width="2"/>
<path d="M10.5 50.5L30.5 50.5" stroke="#A0A4A3" stroke-width="2"/>
<path d="M20.5 10.5L20.5 20.5L20.5 30.5L20.5 40.5L20.5 50.5L20.5 60.5L20.5 70.5L20.5 80.5L20.5 90.5" stroke="#A0A4A3" stroke-width="2"/>
<path d="M10.5 50.5L30.5 50.5" stroke="#A0A4A3" stroke-width="2"/>
<path d="M20.5 10.5L20.5 20.5L20.5 30.5L20.5 40.5L20.5 50.5L20.5 60.5L20.5 70.5L20.5 80.5L20.5 90.5" stroke="#A0A4A3" stroke-width="2"/>
<path d="M10.5 50.5L30.5 50.5" stroke="#A0A4A3" stroke-width="2"/>
<path d="M20.5 10.5L20.5 20.5L20.5 30.5L20.5 40.5L20.5 50.5L20.5 60.5L20.5 70.5L20.5 80.5L20.5 90.5" stroke="#A0A4A3" stroke-width="2"/>
<path d="M10.5 50.5L30.5 50.5" stroke="#A0A4A3" stroke-width="2"/>
<path d="M20.5 10.5L20.5 20.5L20.5 30.5L20.5 40.5L20.5 50.5L20.5 60.5L20.5 70.5L20.5 80.5L20.5 90.5" stroke="#A0A4A3" stroke-width="2"/>
<path d="M10.5 50.5L30.5 50.5" stroke="#A0A4A3" stroke-width="2"/>
<path d="M20.5 10.5L20.5 20.5L20.5 30.5L20.5 40.5L20.5 50.5L20.5 60.5L20.5 70.5L20.5 80.5L20.5 90.5" stroke="#A0A4A3" stroke-width="2"/>
<path d="M10.5 50.5L30.5 50.5" stroke="#A0A4A3" stroke-width="2"/>
<path d="M20.5 10.5L20.5 20.5L20.5 30.5L20.5 40.5L20.5 50.5L20.5 60.5L20.5 70.5L20.5 80.5L20.5 90.5" stroke="#A0A4A3" stroke-width="2"/>
<path d="M10.5 50.5L30.5 50.5" stroke="#A0A4A3" stroke-width="2"/>
<path d="M20.5 10.5L20.5 20.5L20.5 30.5L20.5 40.5L20.5 50.5L20.5 60.5L20.5 70.5L20.5 80.5L20.5 90.5" stroke="#A0A4A3" stroke-width="2"/>
<path d="M10.5 50.5L30.5 50.5" stroke="#A0A4A3" stroke-width="2"/>
<path d="M20.5 10.5L20.5 20.5L20.5 30.5L20.5 40.5L20.5 50.5L20.5 60.5L20.5 70.5L20.5 80.5L20.5 90.5" stroke="#A0A4A3" stroke-width="2"/>
<path d="M10.5 50.5L30.5 50.5" stroke="#A0A4A3" stroke-width="2"/>
<path d="M20.5 10.5L20.5 20.5L20.5 30.5L20.5 40.5L20.5 50.5L20.5 60.5L20.5 70.5L20.5 80.5L20.5 90.5" stroke="#A0A4A3" stroke-width="2"/>
<path d="M10.5 50.5L30.5 50.5" stroke="#A0A4A3" stroke-width="2"/>
<path d="M20.5 10.5L20.5 20.5L20.5 30.5L20.5 40.5L20.5 50.5L20.5 60.5L20.5 70.5L20.5 80.5L20.5 90.5" stroke="#A0A4A3" stroke-width="2"/>
<path d="M10.5 50.5L30.5 50.5" stroke="#A0A4A3" stroke-width="2"/>
<path d="M20.5 10.5L20.5 20.5L20.5 30.5L20.5 40.5L20.5 50.5L20.5 60.5L20.5 70.5L20.5 80.5L20.5 90.5" stroke="#A0A4A3" stroke-width="2"/>
<path d="M10.5 50.5L30.5 50.5" stroke="#A0A4A3" stroke-width="2"/>
<path d="M20.5 10.5L20.5 20.5L20.5 30.5L20.5 40.5L20.5 50.5L20.5 60.5L20.5 70.5L20.5 80.5L20.5 90.5" stroke="#A0A4A3" stroke-width="2"/>
<path d="M10.5 50.5L30.5 50.5" stroke="#A0A4A3" stroke-width="2"/>
<path d="M20.5 10.5L20.5 20.5L20.5 30.5L20.5 40.5L20.5 50.5L20.5 60.5L20.5 70.5L20.5 80.5L20.5 90.5" stroke="#A0A4A3" stroke-width="2"/>
<path d="M10.5 50.5L30.5 50.5" stroke="#A0A4A3" stroke-width="2"/>
<path d="M20.5 10.5L20.5 20.5L20.5 30.5L20.5 40.5L20.5 50.5L20.5 60.5L20.5 70.5L20.5 80.5L20.5 90.5" stroke="#A0A4A3" stroke-width="2"/>
<path d="M10.5 50.5L30.5 50.5" stroke="#A0A4A3" stroke-width="2"/>
<path d="M20.5 10.5L20.5 20.5L20.5 30.5L20.5 40.5L20.5 50.5L20.5 60.5L20.5 70.5L20.5 80.5L20.5 90.5" stroke="#A0A4A3" stroke-width="2"/>
<path d="M10.5 50.5L30.5 50.5" stroke="#A0A4A3" stroke-width="2"/>
<path d="M20.5 10.5L20.5 20.5L20.5 30.5L20.5 40.5L20.5 50.5L20.5 60.5L20.5 70.5L20.5 80.5L20.5 90.5" stroke="#A0A4A3" stroke-width="2"/>
<path d="M10.5 50.5L30.5 50.5" stroke="#A0A4A3" stroke-width="2"/>
<path d="M20.5 10.5L20.5 20.5L20.5 30.5L20.5 40.5L20.5 50.5L20.5 60.5L20.5 70.5L20.5 80.5L20.5 90.5" stroke="#A0A4A3" stroke-width="2"/>
<path d="M10.5 50.5L30.5 50.5" stroke="#A0A4A3" stroke-width="2"/>
<path d="M20.5 10.5L20.5 20.5L20.5 30.5L20.5 40.5L20.5 50.5L20.5 60.5L20.5 70.5L20.5 80.5L20.5 90.5" stroke="#A0A4A3" stroke-width="2"/>
<path d="M10.5 50.5L30.5 50.5" stroke="#A0A4A3" stroke-width="2"/>
<path d="M20.5 10.5L20.5 20.5L20.5 30.5L20.5 40.5L20.5 50.5L20.5 60.5L20.5 70.5L20.5 80.5L20.5 90.5" stroke="#A0A4A3" stroke-width="2"/>
<path d="M10.5 50.5L30.5 50.5" stroke="#A0A4A3" stroke-width="2"/>
<path d="M20.5 10.5L20.5 20.5L20.5 30.5L20.5 40.5L20.5 50.5L20.5 60.5L20.5 70.5L20.5 80.5L20.5 90.5" stroke="#A0A4A3" stroke-width="2"/>
<path d="M10.5 50.5L30.5 50.5" stroke="#A0A4A3" stroke-width="2"/>
<path d="M20.5 10.5L20.5 20.5L20.5 30.5L20.5 40.5L20.5 50.5L20.5 60.5L20.5 70.5L20.5 80.5L20.5 90.5" stroke="#A0A4A3" stroke-width="2"/>
<path d="M10.5 50.5L30.5 50.5" stroke="#A0A4A3" stroke-width="2"/>
<path d="M20.5 10.5L20.5 20.5L20.5 30.5L20.5 40.5L20.5 50.5L20.5 60.5L20.5 70.5L20.5 80.5L20.5 90.5" stroke="#A0A4A3" stroke-width="2"/>
<path d="M10.5 50.5L30.5 50.5" stroke="#A0A4A3" stroke-width="2"/>
<path d="M20.5 10.5L20.5 20.5L20.5 30.5L20.5 40.5L20.5 50.5L20.5 60.5L20.5 70.5L20.5 80.5L20.5 90.5" stroke="#A0A4A3" stroke-width="2"/>
<path d="M10.5 50.5L30.5 50.5" stroke="#A0A4A3" stroke-width="2"/>
<path d="M20.5 10.5L20.5 20.5L20.5 30.5L20.5 40.5L20.5 50.5L20.5 60.5L20.5 70.5L20.5 80.5L20.5 90.5" stroke="#A0A4A3" stroke-width="2"/>
<path d="M10.5 50.5L30.5 50.5" stroke="#A0A4A3" stroke-width="2"/>
<path d="M20.5 10.5L20.5 20.5L20.5 30.5L20.5 40.5L20.5 50.5L20.5 60.5L20.5 70.5L20.5 80.5L20.5 90.5" stroke="#A0A4A3" stroke-width="2"/>
<path d="M10.5 50.5L30.5 50.5" stroke="#A0A4A3" stroke-width="2"/>
<path d="M20.5 10.5L20.5 20.5L20.5 30.5L20.5 40.5L20.5 50.5L20.5 60.5L20.5 70.5L20.5 80.5L20.5 90.5" stroke="#A0A4A3" stroke-width="2"/>
<path d="M10.5 50.5L30.5 50.5" stroke="#A0A4A3" stroke-width="2"/>
<path d="M20.5 10.5L20.5 20.5L20.5 30.5L20.5 40.5L20.5 50.5L20.5 60.5L20.5 70.5L20.5 80.5L20.5 90.5" stroke="#A0A4A3" stroke-width="2"/>
<path d="M10.5 50.5L30.5 50.5" stroke="#A0A4A3" stroke-width="2"/>
<path d="M20.5 10.5L20.5 20.5L20.5 30.5L20.5 40.5L20.5 50.5L20.5 60.5L20.5 70.5L20.5 80.5L20.5 90.5" stroke="#A0A4A3" stroke-width="2"/>
<path d="M10.5 50.5L30.5 50.5" stroke="#A0A4A3" stroke-width="2"/>
<path d="M20.5 10.5L20.5 20.5L20.5 30.5L20.5 40.5L20.5 50.5L20.5 60.5L20.5 70.5L20.5 80.5L20.5 90.5" stroke="#A0A4A3" stroke-width="2"/>
<path d="M10.5 50.5L30.5 50.5" stroke="#A0A4A3" stroke-width="2"/>
<path d="M20.5 10.5L20.5 20.5L20.5 30.5L20.5 40.5L20.5 50.5L20.5 60.5L20.5 70.5L20.5 80.5L20.5 90.5" stroke="#A0A4A3" stroke-width="2"/>
<path d="M10.5 50.5L30.5 50.5" stroke="#A0A4A3" stroke-width="2"/>
<path d="M20.5 10.5L20.5 20.5L20.5 30.5L20.5 40.5L20.5 50.5L20.5 60.5L20.5 70.5L20.5 80.5L20.5 90.5" stroke="#A0A4A3" stroke-width="2"/>
<path d="M10.5 50.5L30.5 50.5" stroke="#A0A4A3" stroke-width="2"/>
<path d="M20.5 10.5L20.5 20.5L20.5 30.5L20.5 40.5L20.5 50.5L20.5 60.5L20.5 70.5L20.5 80.5L20.5 90.5" stroke="#A0A4A3" stroke-width="2"/>
<path d="M10.5 50.5L30.5 50.5" stroke="#A0A4A3" stroke-width="2"/>
<path d="M20.5 10.5L20.5 20.5L20.5 30.5L20.5 40.5L20.5 50.5L20.5 60.5L20.5 70.5L20.5 80.5L20.5 90.5" stroke="#A0A4A3" stroke-width="2"/>
<path d="M10.5 50.5L30.5 50.5" stroke="#A0A4A3" stroke-width="2"/>
<path d="M20.5 10.5L20.5 20.5L20.5 30.5L20.5 40.5L20.5 50.5L20.5 60.5L20.5 70.5L20.5 80.5L20.5 90.5" stroke="#A0A4A3" stroke-width="2"/>
<path d="M10.5 50.5L30.5 50.5" stroke="#A0A4A3" stroke-width="2"/>
<path d="M20.5 10.5L20.5 20.5L20.5 30.5L20.5 40.5L20.5 50.5L20.5 60.5L20.5 70.5L20.5 80.5L20.5 90.5" stroke="#A0A4A3" stroke-width="2"/>
<path d="M10.5 50.5L30.5 50.5" stroke="#A0A4A3" stroke-width="2"/>
<path d="M20.5 10.5L20.5 20.5L20.5 30.5L20.5 40.5L20.5 50.5L20.5 60.5L20.5 70.5L20.5 80.5L20.5 90.5" stroke="#A0A4A3" stroke-width="2"/>
<path d="M10.5 50.5L30.5 50.5" stroke="#A0A4A3" stroke-width="2"/>
<path d="M20.5 10.5L20.5 20.5L20.5 30.5L20.5 40.5L20.5 50.5L20.5 60.5L20.5 70.5L20.5 80.5L20.5 90.5" stroke="#A0A4A3" stroke-width="2"/>
<path d="M10.5 50.5L30.5 50.5" stroke="#A0A4A3" stroke-width="2"/>
<path d="M20.5 10.5L20.5 20.5L20.5 30.5L20.5 40.5L20.5 50.5L20.5 60.5L20.5 70.5L20.5 80.5L20.5 90.5" stroke="#A0A4A3" stroke-width="2"/>
<path d="M10.5 50.5L30.5 50.5" stroke="#A0A4A3" stroke-width="2"/>
<path d="M20.5 10.5L20.5 20.5L20.5 30.5L20.5 40.5L20.5 50.5L20.5 60.5L20.5 70.5L20.5 80.5L20.5 90.5" stroke="#A0A4A3" stroke-width="2"/>
<path d="M10.5 50.5L30.5 50.5" stroke="#A0A4A3" stroke-width="2"/>
<path d="M20.5 10.5L20.5 20.5L20.5 30.5L20.5 40.5L20.5 50.5L20.5 60.5L20.5 70.5L20.5 80.5L20.5 90.5" stroke="#A0A4A3" stroke-width="2"/>
<path d="M10.5 50.5L30.5 50.5" stroke="#A0A4A3" stroke-width="2"/>
<path d="M20.5 10.5L20.5 20.5L20.5 30.5L20.5 40.5L20.5 50.5L20.5 60.5L20.5 70.5L20.5 80.5L20.5 90.5" stroke="#A0A4A3" stroke-width="2"/>
<path d="M10.5 50.5L30.5 50.5" stroke="#A0A4A3" stroke-width="2"/>
<path d="M20.5 10.5L20.5 20.5L20.5 30.5L20.5 40.5L20.5 50.5L20.5 60.5L20.5 70.5L20.5 80.5L20.5 90.5" stroke="#A0A4A3" stroke-width="2"/>
<path d="M10.5 50.5L30.5 50.5" stroke="#A0A4A3" stroke-width="2"/>
<path d="M20.5 10.5L20.5 20.5L20.5 30.5L20.5 40.5L20.5 50.5L20.5 60.5L20.5 70.5L20.5 80.5L20.5 90.5" stroke="#A0A4A3" stroke-width="2"/>
<path d="M10.5 50.5L30.5 50.5" stroke="#A0A4A3" stroke-width="2"/>
<path d="M20.5 10.5L20.5 20.5L20.5 30.5L20.5 40.5L20.5 50.5L20.5 60.5L20.5 70.5L20.5 80.5L20.5 90.5" stroke="#A0A4A3" stroke-width="2"/>
<path d="M10.5 50.5L30.5 50.5" stroke="#A0A4A3" stroke-width="2"/>
<path d="M20.5 10.5L20.5 20.5L20.5 30.5L20.5 40.5L20.5 50.5L20.5 60.5L20.5 70.5L20.5 80.5L20.5 90.5" stroke="#A0A4A3" stroke-width="2"/>
<path d="M10.5 50.5L30.5 50.5" stroke="#A0A4A3" stroke-width="2"/>
<path d="M20.5 10.5L20.5 20.5L20.5 30.5L20.5 40.5L20.5 50.5L20.5 60.5L20.5 70.5L20.5 80.5L20.5 90.5" stroke="#A0A4A3" stroke-width="2"/>
<path d="M10.5 50.5L30.5 50.5" stroke="#A0A4A3" stroke-width="2"/>
<path d="M20.5 10.5L20.5 20.5L20.5 30.5L20.5 40.5L20.5 50.5L20.5 60.5L20.5 70.5L20.5 80.5L20.5 90.5" stroke="#A0A4A3" stroke-width="2"/>
<path d="M10.5 50.5L30.5 50.5" stroke="#A0A4A3" stroke-width="2"/>
<path d="M20.5 10.5L20.5 20.5L20.5 30.5L20.5 40.5L20.5 50.5L20.5 60.5L20.5 70.5L20.5 80.5L20.5 90.5" stroke="#A0A4A3" stroke-width="2"/>
<path d="M10.5 50.5L30.5 50.5" stroke="#A0A4A3" stroke-width="2"/>
<path d="M20.5 10.5L20.5 20.5L20.5 30.5L20.5 40.5L20.5 50.5L20.5 60.5L20.5 70.5L20.5 80.5L20.5 90.5" stroke="#A0A4A3" stroke-width="2"/>
<path d="M10.5 50.5L30.5 50.5" stroke="#A0A4A3" stroke-width="2"/>
<path d="M20.5 10.5L20.5 20.5L20.5 30.5L20.5 40.5L20.5 50.5L20.5 60.5L20.5 70.5L20.5 80.5L20.5 90.5" stroke="#A0A4A3" stroke-width="2"/>
<path d="M10.5 50.5L30.5 50.5" stroke="#A0A4A3" stroke-width="2"/>
<path d="M20.5 10.5L20.5 20.5L20.5 30.5L20.5 40.5L20.5 50.5L20.5 60.5L20.5 70.5L20.5 80.5L20.5 90.5" stroke="#A0A4A3" stroke-width="2"/>
<path d="M10.5 50.5L30.5 50.5" stroke="#A0A4A3" stroke-width="2"/>
<path d="M20.5 10.5L20.5 20.5L20.5 30.5L20.5 40.5L20.5 50.5L20.5 60.5L20.5 70.5L20.5 80.5L20.5 90.5" stroke="#A0A4A3" stroke-width="2"/>
<path d="M10.5 50.5L30.5 50.5" stroke="#A0A4A3" stroke-width="2"/>
<path d="M20.5 10.5L20.5 20.5L20.5 30.5L20.5 40.5L20.5 50.5L20.5 60.5L20.5 70.5L20.5 80.5L20.5 90.5" stroke="#A0A4A3" stroke-width="2"/>
<path d="M10.5 50.5L30.5 50.5" stroke="#A0A4A3" stroke-width="2"/>
<path d="M20.5 10.5L20.5 20.5L20.5 30.5L20.5 40.5L20.5 50.5L20.5 60.5L20.5 70.5L20.5 80.5L20.5 90.5" stroke="#A0A4A3" stroke-width="2"/>
<path d="M10.5 50.5L30.5 50.5" stroke="#A0A4A3" stroke-width="2"/>
<path d="M20.5 10.5L20.5 20.5L20.5 30.5L20.5 40.5L20.5 50.5L20.5 60.5L20.5 70.5L20.5 80.5L20.5 90.5" stroke="#A0A4A3" stroke-width="2"/>
<path d="M10.5 50.5L30.5 50.5" stroke="#A0A4A3" stroke-width="2"/>
<path d="M20.5 10.5L20.5 20.5L20.5 30.5L20.5 40.5L20.5 50.5L20.5 60.5L20.5 70.5L20.5 80.5L20.5 90.5" stroke="#A0A4A3" stroke-width="2"/>
<path d="M10.5 50.5L30.5 50.5" stroke="#A0A4A3" stroke-width="2"/>
<path d="M20.5 10.5L20.5 20.5L20.5 30.5L20.5 40.5L20.5 50.5L20.5 60.5L20.5 70.5L20.5 80.5L20.5 90.5" stroke="#A0A4A3" stroke-width="2"/>
<path d="M10.5 50.5L30.5 50.5" stroke="#A0A4A3" stroke-width="2"/>
<path d="M20.5 10.5L20.5 20.5L20.5 30.5L20.5 40.5L20.5 50.5L20.5 60.5L20.5 70.5L20.5 80.5L20.5 90.5" stroke="#A0A4A3" stroke-width="2"/>
<path d="M10.5 50.5L30.5 50.5" stroke="#A0A4A3" stroke-width="2"/>
<path d="M20.5 10.5L20.5 20.5L20.5 30.5L20.5 40.5L20.5 50.5L20.5 60.5L20.5 70.5L20.5 80.5L20.5 90.5" stroke="#A0A4A3" stroke-width="2"/>
<path d="M10.5 50.5L30.5 50.5" stroke="#A0A4A3" stroke-width="2"/>
<path d="M20.5 10.5L20.5 20.5L20.5 30.5L20.5 40.5L20.5 50.5L20.5 60.5L20.5 70.5L20.5 80.5L20.5 90.5" stroke="#A0A4A3" stroke-width="2"/>
<path d="M10.5 50.5L30.5 50.5" stroke="#A0A4A3" stroke-width="2"/>
<path d="M20.5 10.5L20.5 20.5L20.5 30.5L20.5 40.5L20.5 50.5L20.5 60.5L20.5 70.5L20.5 80.5L20.5 90.5" stroke="#A0A4A3" stroke-width="2"/>
<path d="M10.5 50.5L30.5 50.5" stroke="#A0A4A3" stroke-width="2"/>
<path d="M20.5 10.5L20.5 20.5L20.5 30.5L20.5 40.5L20.5 50.5L20.5 60.5L20.5 70.5L20.5 80.5L20.5 90.5" stroke="#A0A4A3" stroke-width="2"/>
<path d="M10.5 50.5L30.5 50.5" stroke="#A0A4A3" stroke-width="2"/>
<path d="M20.5 10.5L20.5 20.5L20.5 30.5L20.5 40.5L20.5 50.5L20.5 60.5L20.5 70.5L20.5 80.5L20.5 90.5" stroke="#A0A4A3" stroke-width="2"/>
<path d="M10.5 50.5L30.5 50.5" stroke="#A0A4A3" stroke-width="2"/>
<path d="M20.5 10.5L20.5 20.5L20.5 30.5L20.5 40.5L20.5 50.5L20.5 60.5L20.5 70.5L20.5 80.5L20.5 90.5" stroke="#A0A4A3" stroke-width="2"/>
<path d="M10.5 50.5L30.5 50.5" stroke="#A0A4A3" stroke-width="2"/>
<path d="M20.5 10.5L20.5 20.5L20.5 30.5L20.5 40.5L20.5 50.5L20.5 60.5L20.5 70.5L20.5 80.5L20.5 90.5" stroke="#A0A4A3" stroke-width="2"/>
<path d="M10.5 50.5L30.5 50.5" stroke="#A0A4A3" stroke-width="2"/>
<path d="M20.5 10.5L20.5 20.5L20.5 30.5L20.5 40.5L20.5 50.5L20.5 60.5L20.5 70.5L20.5 80.5L20.5 90.5" stroke="#A0A4A3" stroke-width="2"/>
<path d="M10.5 50.5L30.5 50.5" stroke="#A0A4A3" stroke-width="2"/>
<path d="M20.5 10.5L20.5 20.5L20.5 30.5L20.5 40.5L20.5 50.5L20.5 60.5L20.5 70.5L20.5 80.5L20.5 90.5" stroke="#A0A4A3" stroke-width="2"/>
<path d="M10.5 50.5L30.5 50.5" stroke="#A0A4A3" stroke-width="2"/>
<path d="M20.5 10.5L20.5 20.5L20.5 30.5L20.5 40.5L20.5 50.5L20.5 60.5L20.5 70.5L20.5 80.5L20.5 90.5" stroke="#A0A4A3" stroke-width="2"/>
<path d="M10.5 50.5L30.5 50.5" stroke="#A0A4A3" stroke-width="2"/>
<path d="M20.5 10.5L20.5 20.5L20.5 30.5L20.5 40.5L20.5 50.5L20.5 60.5L20.5 70.5L20.5 80.5L20.5 90.5" stroke="#A0A4A3" stroke-width="2"/>
<path d="M10.5 50.5L30.5 50.5" stroke="#A0A4A3" stroke-width="2"/>
<path d="M20.5 10.5L20.5 20.5L20.5 30.5L20.5 40.5L20.5 50.5L20.5 60.5L20.5 70.5L20.5 80.5L20.5 90.5" stroke="#A0A4A3" stroke-width="2"/>
<path d="M10.5 50.5L30.5 50.5" stroke="#A0A4A3" stroke-width="2"/>
<path d="M20.5 10.5L20.5 20.5L20.5 30.5L20.5 40.5L20.5 50.5L20.5 60.5L20.5 70.5L20.5 80.5L20.5 90.5" stroke="#A0A4A3" stroke-width="2"/>
<path d="M10.5 50.5L30.5 50.5" stroke="#A0A4A3" stroke-width="2"/>
<path d="M20.5 10.5L20.5 20.5L20.5 30.5L20.5 40.5L20.5 50.5L20.5 60.5L20.5 70.5L20.5 80.5L20.5 90.5" stroke="#A0A4A3" stroke-width="2"/>
<path d="M10.5 50.5L30.5 50.5" stroke="#A0A4A3" stroke-width="2"/>
<path d="M20.5 10.5L20.5 20.5L20.5 30.5L20.5 40.5L20.5 50.5L20.5 60.5L20.5 70.5L20.5 80.5L20.5 90.5" stroke="#A0A4A3" stroke-width="2"/>
<path d="M10.5 50.5L30.5 50.5" stroke="#A0A4A3" stroke-width="2"/>
<path d="M20.5 10.5L20.5 20.5L20.5 30.5L20.5 40.5L20.5 50.5L20.5 60.5L20.5 70.5L20.5 80.5L20.5 90.5" stroke="#A0A4A3" stroke-width="2"/>
<path d="M10.5 50.5L30.5 50.5" stroke="#A0A4A3" stroke-width="2"/>
<path d="M20.5 10.5L20.5 20.5L20.5 30.5L20.5 40.5L20.5 50.5L20.5 60.5L20.5 70.5L20.5 80.5L20.5 90.5" stroke="#A0A4A3" stroke-width="2"/>
<path d="M10.5 50.5L30.5 50.5" stroke="#A0A4A3" stroke-width="2"/>
<path d="M20.5 10.5L20.5 20.5L20.5 30.5L20.5 40.5L20.5 50.5L20.5 60.5L20.5 70.5L20.5 80.5L20.5 90.5" stroke="#A0A4A3" stroke-width="2"/>
<path d="M10.5 50.5L30.5 50.5" stroke="#A0A4A3" stroke-width="2"/>
<path d="M20.5 10.5L20.5 20.5L20.5 30.5L20.5 40.5L20.5 50.5L20.5 60.5L20.5 70.5L20.5 80.5L20.5 90.5" stroke="#A0A4A3" stroke-width="2"/>
<path d="M10.5 50.5L30.5 50.5" stroke="#A0A4A3" stroke-width="2"/>
<path d="M20.5 10.5L20.5 20.5L20.5 30.5L20.5 40.5L20.5 50.5L20.5 60.5L20.5 70.5L20.5 80.5L20.5 90.5" stroke="#A0A4A3" stroke-width="2"/>
<path d="M10.5 50.5L30.5 50.5" stroke="#A0A4A3" stroke-width="2"/>
<path d="M20.5 10.5L20.5 20.5L20.5 30.5L20.5 40.5L20.5 50.5L20.5 60.5L20.5 70.5L20.5 80.5L20.5 90.5" stroke="#A0A4A3" stroke-width="2"/>
<path d="M10.5 50.5L30.5 50.5" stroke="#A0A4A3" stroke-width="2"/>
<path d="M20.5 10.5L20.5 20.5L20.5 30.5L20.5 40.5L20.5 50.5L20.5 60.5L20.5 70.5L20.5 80.5L20.5 90.5" stroke="#A0A4A3" stroke-width="2"/>
<path d="M10.5 50.5L30.5 50.5" stroke="#A0A4A3" stroke-width="2"/>
<path d="M20.5 10.5L20.5 20.5L20.5 30.5L20.5 40.5L20.5 50.5L20.5 60.5L20.5 70.5L20.5 80.5L20.5 90.5" stroke="#A0A4A3" stroke-width="2"/>
<path d="M10.5 50.5L30.5 50.5" stroke="#A0A4A3" stroke-width="2"/>
<path d="M20.5 10.5L20.5 20.5L20.5 30.5L20.5 40.5L20.5 50.5L20.5 60.5L20.5 70.5L20.5 80.5L20.5 90.5" stroke="#A0A4A3" stroke-width="2"/>
<path d="M10.5 50.5L30.5 50.5" stroke="#A0A4A3" stroke-width="2"/>
<path d="M20.5 10.5L20.5 20.5L20.5 30.5L20.5 40.5L20.5 50.5L20.5 60.5L20.5 70.5L20.5 80.5L20.5 90.5" stroke="#A0A4A3" stroke-width="2"/>
<path d="M10.5 50.5L30.5 50.5" stroke="#A0A4A3" stroke-width="2"/>
<path d="M20.5 10.5L20.5 20.5L20.5 30.5L20.5 40.5L20.5 50.5L20.5 60.5L20.5 70.5L20.5 80.5L20.5 90.5" stroke="#A0A4A3" stroke-width="2"/>
<path d="M10.5 50.5L30.5 50.5" stroke="#A0A4A3" stroke-width="2"/>
<path d="M20.5 10.5L20.5 20.5L20.5 30.5L20.5 40.5L20.5 50.5L20.5 60.5L20.5 70.5L20.5 80.5L20.5 90.5" stroke="#A0A4A3" stroke-width="2"/>
<path d="M10.5 50.5L30.5 50.5" stroke="#A0A4A3" stroke-width="2"/>
<path d="M20.5 10.5L20.5 20.5L20.5 30.5L20.5 40.5L20.5 50.5L20.5 60.5L20.5 70.5L20.5 80.5L20.5 90.5" stroke="#A0A4A3" stroke-width="2"/>
<path d="M10.5 50.5L30.5 50.5" stroke="#A0A4A3" stroke-width="2"/>
<path d="M20.5 10.5L20.5 20.5L20.5 30.5L20.5 40.5L20.5 50.5L20.5 60.5L20.5 70.5L20.5 80.5L20.5 90.5" stroke="#A0A4A3" stroke-width="2"/>
<path d="M10.5 50.5L30.5 50.5" stroke="#A0A4A3" stroke-width="2"/>
<path d="M20.5 10.5L20.5 20.5L20.5 30.5L20.5 40.5L20.5 50.5L20.5 60.5L20.5 70.5L20.5 80.5L20.5 90.5" stroke="#A0A4A3" stroke-width="2"/>
<path d="M10.5 50.5L30.5 50.5" stroke="#A0A4A3" stroke-width="2"/>
<path d="M20.5 10.5L20.5 20.5L20.5 30.5L20.5 40.5L20.5 50.5L20.5 60.5L20.5 70.5L20.5 80.5L20.5 90.5" stroke="#A0A4A3" stroke-width="2"/>
<path d="M10.5 50.5L30.5 50.5" stroke="#A0A4A3" stroke-width="2"/>
<path d="M20.5 10.5L20.5 20.5L20.5 30.5L20.5 40.5L20.5 50.5L20.5 60.5L20.5 70.5L20.5 80.5L20.5 90.5" stroke="#A0A4A3" stroke-width="2"/>
<path d="M10.5 50.5L30.5 50.5" stroke="#A0A4A3" stroke-width="2"/>
<path d="M20.5 10.5L20.5 20.5L20.5 30.5L20.5 40.5L20.5 50.5L20.5 60.5L20.5 70.5L20.5 80.5L20.5 90.5" stroke="#A0A4A3" stroke-width="2"/>
<path d="M10.5 50.5L30.5 50.5" stroke="#A0A4A3" stroke-width="2"/>
<path d="M20.5 10.5L20.5 20.5L20.5 30.5L20.5 40.5L20.5 50.5L20.5 60.5L20.5 70.5L20.5 80.5L20.5 90.5" stroke="#A0A4A3" stroke-width="2"/>
<path d="M10.5 50.5L30.5 50.5" stroke="#A0A4A3" stroke-width="2"/>
<path d="M20.5 10.5L20.5 20.5L20.5 30.5L20.5 40.5L20.5 50.5L20.5 60.5L20.5 70.5L20.5 80.5L20.5 90.5" stroke="#A0A4A3" stroke-width="2"/>
<path d="M10.5 50.5L30.5 50.5" stroke="#A0A4A3" stroke-width="2"/>
<path d="M20.5 10.5L20.5 20.5L20.5 30.5L20.5 40.5L20.5 50.5L20.5 60.5L20.5 70.5L20.5 80.5L20.5 90.5" stroke="#A0A4A3" stroke-width="2"/>
<path d="M10.5 50.5L30.5 50.5" stroke="#A0A4A3" stroke-width="2"/>
<path d="M20.5 10.5L20.5 20.5L20.5 30.5L20.5 40.5L20.5 50.5L20.5 60.5L20.5 70.5L20.5 80.5L20.5 90.5" stroke="#A0A4A3" stroke-width="2"/>
<path d="M10.5 50.5L30.5 50.5" stroke="#A0A4A3" stroke-width="2"/>
<path d="M20.5 10.5L20.5 20.5L20.5 30.5L20.5 40.5L20.5 50.5L20.5 60.5L20.5 70.5L20.5 80.5L20.5 90.5" stroke="#A0A4A3" stroke-width="2"/>
<path d="M10.5 50.5L30.5 50.5" stroke="#A0A4A3" stroke-width="2"/>
<path d="M20.5 10.5L20.5 20.5L20.5 30.5L20.5 40.5L20.5 50.5L20.5 60.5L20.5 70.5L20.5 80.5L20.5 90.5" stroke="#A0A4A3" stroke-width="2"/>
<path d="M10.5 50.5L30.5 50.5" stroke="#A0A4A3" stroke-width="2"/>
<path d="M20.5 10.5L20.5 20.5L20.5 30.5L20.5 40.5L20.5 50.5L20.5 60.5L20.5 70.5L20.5 80.5L20.5 90.5" stroke="#A0A4A3" stroke-width="2"/>
<path d="M10.5 50.5L30.5 50.5" stroke="#A0A4A3" stroke-width="2"/>
<path d="M20.5 10.5L20.5 20.5L20.5 30.5L20.5 40.5L20.5 50.5L20.5 60.5L20.5 70.5L20.5 80.5L20.5 90.5" stroke="#A0A4A3" stroke-width="2"/>
<path d="M10.5 50.5L30.5 50.5" stroke="#A0A4A3" stroke-width="2"/>
<path d="M20.5 10.5L20.5 20.5L20.5 30.5L20.5 40.5L20.5 50.5L20.5 60.5L20.5 70.5L20.5 80.5L20.5 90.5" stroke="#A0A4A3" stroke-width="2"/>
<path d="M10.5 50.5L30.5 50.5" stroke="#A0A4A3" stroke-width="2"/>
<path d="M20.5 10.5L20.5 20.5L20.5 30.5L20.5 40.5L20.5 50.5L20.5 60.5L20.5 70.5L20.5 80.5L20.5 90.5" stroke="#A0A4A3" stroke-width="2"/>
<path d="M10.5 50.5L30.5 50.5" stroke="#A0A4A3" stroke-width="2"/>
<path d="M20.5 10.5L20.5 20.5L20.5 30.5L20.5 40.5L20.5 50.5L20.5 60.5L20.5 70.5L20.5 80.5L20.5 90.5" stroke="#A0A4A3" stroke-width="2"/>
<path d="M10.5 50.5L30.5 50.5" stroke="#A0A4A3" stroke-width="2"/>
<path d="M20.5 10.5L20.5 20.5L20.5 30.5L20.5 40.5L20.5 50.5L20.5 60.5L20.5 70.5L20.5 80.5L20.5 90.5" stroke="#A0A4A3" stroke-width="2"/>
<path d="M10.5 50.5L30.5 50.5" stroke="#A0A4A3" stroke-width="2"/>
<path d="M20.5 10.5L20.5 20.5L20.5 30.5L20.5 40.5L20.5 50.5L20.5 60.5L20.5 70.5L20.5 80.5L20.5 90.5" stroke="#A0A4A3" stroke-width="2"/>
<path d="M10.5 50.5L30.5 50.5" stroke="#A0A4A3" stroke-width="2"/>
<path d="M20.5 10.5L20.5 20.5L20.5 30.5L20.5 40.5L20.5 50.5L20.5 60.5L20.5 70.5L20.5 80.5L20.5 90.5" stroke="#A0A4A3" stroke-width="2"/>
<path d="M10.5 50.5L30.5 50.5" stroke="#A0A4A3" stroke-width="2"/>
<path d="M20.5 10.5L20.5 20.5L20.5 30.5L20.5 40.5L20.5 50.5L20.5 60.5L20.5 70.5L20.5 80.5L20.5 90.5" stroke="#A0A4A3" stroke-width="2"/>
<path d="M10.5 50.5L30.5 50.5" stroke="#A0A4A3" stroke-width="2"/>
<path d="M20.5 10.5L20.5 20.5L20.5 30.5L20.5 40.5L20.5 50.5L20.5 60.5L20.5 70.5L20.5 80.5L20.5 90.5" stroke="#A0A4A3" stroke-width="2"/>
<path d="M10.5 50.5L30.5 50.5" stroke="#A0A4A3" stroke-width="2"/>
<path d="M20.5 10.5L20.5 20.5L20.5 30.5L20.5 40.5L20.5 50.5L20.5 60.5L20.5 70.5L20.5 80.5L20.5 90.5" stroke="#A0A4A3" stroke-width="2"/>
<path d="M10.5 50.5L30.5 50.5" stroke="#A0A4A3" stroke-width="2"/>
<path d="M20.5 10.5L20.5 20.5L20.5 30.5L20.5 40.5L20.5 50.5L20.5 60.5L20.5 70.5L20.5 80.5L20.5 90.5" stroke="#A0A4A3" stroke-width="2"/>
<path d="M10.5 50.5L30.5 50.5" stroke="#A0A4A3" stroke-width="2"/>
<path d="M20.5 10.5L20.5 20.5L20.5 30.5L20.5 40.5L20.5 50.5L20.5 60.5L20.5 70.5L20.5 80.5L20.5 90.5" stroke="#A0A4A3" stroke-width="2"/>
<path d="M10.5 50.5L30.5 50.5" stroke="#A0A4A3" stroke-width="2"/>
<path d="M20.5 10.5L20.5 20.5L20.5 30.5L20.5 40.5L20.5 50.5L20.5 60.5L20.5 70.5L20.5 80.5L20.5 90.5" stroke="#A0A4A3" stroke-width="2"/>
<path d="M10.5 50.5L30.5 50.5" stroke="#A0A4A3" stroke-width="2"/>
<path d="M20.5 10.5L20.5 20.5L20.5 30.5L20.5 40.5L20.5 50.5L20.5 60.5L20.5 70.5L20.5 80.5L20.5 90.5" stroke="#A0A4A3" stroke-width="2"/>
<path d="M10.5 50.5L30.5 50.5" stroke="#A0A4A3" stroke-width="2"/>
<path d="M20.5 10.5L20.5 20.5L20.5 30.5L20.5 40.5L20.5 50.5L20.5 60.5L20.5 70.5L20.5 80.5L20.5 90.5" stroke="#A0A4A3" stroke-width="2"/>
<path d="M10.5 50.5L30.5 50.5" stroke="#A0A4A3" stroke-width="2"/>
<path d="M20.5 10.5L20.5 20.5L20.5 30.5L20.5 40.5L20.5 50.5L20.5 60.5L20.5 70.5L20.5 80.5L20.5 90.5" stroke="#A0A4A3" stroke-width="2"/>
<path d="M10.5 50.5L30.5 50.5" stroke="#A0A4A3" stroke-width="2"/>
<path d="M20.5 10.5L20.5 20.5L20.5 30.5L20.5 40.5L20.5 50.5L20.5 60.5L20.5 70.5L20.5 80.5L20.5 90.5" stroke="#A0A4A3" stroke-width="2"/>
<path d="M10.5 50.5L30.5 50.5" stroke="#A0A4A3" stroke-width="2"/>
<path d="M20.5 10.5L20.5 20.5L20.5 30.5L20.5 40.5L20.5 50.5L20.5 60.5L20.5 70.5L20.5 80.5L20.5 90.5" stroke="#A0A4A3" stroke-width="2"/>
<path d="M10.5 50.5L30.5 50.5" stroke="#A0A4A3" stroke-width="2"/>
<path d="M20.5 10.5L20.5 20.5L20.5 30.5L20.5 40.5L20.5 50.5L20.5 60.5L20.5 70.5L20.5 80.5L20.5 90.5" stroke="#A0A4A3" stroke-width="2"/>
<path d="M10.5 50.5L30.5 50.5" stroke="#A0A4A3" stroke-width="2"/>
<path d="M20.5 10.5L20.5 20.5L20.5 30.5L20.5 40.5L20.5 50.5L20.5 60.5L20.5 70.5L20.5 80.5L20.5 90.5" stroke="#A0A4A3" stroke-width="2"/>
<path d="M10.5 50.5L30.5 50.5" stroke="#A0A4A3" stroke-width="2"/>
<path d="M20.5 10.5L20.5 20.5L20.5 30.5L20.5 40.5L20.5 50.5L20.5 60.5L20.5 70.5L20.5 80.5L20.5 90.5" stroke="#A0A4A3" stroke-width="2"/>
<path d="M10.5 50.5L30.5 50.5" stroke="#A0A4A3" stroke-width="2"/>
<path d="M20.5 10.5L20.5 20.5L20.5 30.5L20.5 40.5L20.5 50.5L20.5 60.5L20.5 70.5L20.5 80.5L20.5 90.5" stroke="#A0A4A3" stroke-width="2"/>
<path d="M10.5 50.5L30.5 50.5" stroke="#A0A4A3" stroke-width="2"/>
<path d="M20.5 10.5L20.5 20.5L20.5 30.5L20.5 40.5L20.5 50.5L20.5 60.5L20.5 70.5L20.5 80.5L20.5 90.5" stroke="#A0A4A3" stroke-width="2"/>
<path d="M10.5 50.5L30.5 50.5" stroke="#A0A4A3" stroke-width="2"/>
<path d="M20.5 10.5L20.5 20.5L20.5 30.5L20.5 40.5L20.5 50.5L20.5 60.5L20.5 70.5L20.5 80.5L20.5 90.5" stroke="#A0A4A3" stroke-width="2"/>
<path d="M10.5 50.5L30.5 50.5" stroke="#A0A4A3" stroke-width="2"/>
<path d="M20.5 10.5L20.5 20.5L20.5 30.5L20.5 40.5L20.5 50.5L20.5 60.5L20.5 70.5L20.5 80.5L20.5 90.5" stroke="#A0A4A3" stroke-width="2"/>
<path d="M10.5 50.5L30.5 50.5" stroke="#A0A4A3" stroke-width="2"/>
<path d="M20.5 10.5L20.5 20.5L20.5 30.5L20.5 40.5L20.5 50.5L20.5 60.5L20.5 70.5L20.5 80.5L20.5 90.5" stroke="#A0A4A3" stroke-width="2"/>
<path d="M10.5 50.5L30.5 50.5" stroke="#A0A4A3" stroke-width="2"/>
<path d="M20.5 10.5L20.5 20.5L20.5 30.5L20.5 40.5L20.5 50.5L20.5 60.5L20.5 70.5L20.5 80.5L20.5 90.5" stroke="#A0A4A3" stroke-width="2"/>
<path d="M10.5 50.5L30.5 50.5" stroke="#A0A4A3" stroke-width="2"/>
<path d="M20.5 10.5L20.5 20.5L20.5 30.5L20.5 40.5L20.5 50.5L20.5 60.5L20.5 70.5L20.5 80.5L20.5 90.5" stroke="#A0A4A3" stroke-width="2"/>
<path d="M10.5 50.5L30.5 50.5" stroke="#A0A4A3" stroke-width="2"/>
<path d="M20.5 10.5L20.5 20.5L20.5 30.5L20.5 40.5L20.5 50.5L20.5 60.5L20.5 70.5L20.5 80.5L20.5 90.5" stroke="#A0A4A3" stroke-width="2"/>
<path d="M10.5 50.5L30.5 50.5" stroke="#A0A4A3" stroke-width="2"/>
<path d="M20.5 10.5L20.5 20.5L20.5 30.5L20.5 40.5L20.5 50.5L20.5 60.5L20.5 70.5L20.5 80.5L20.5 90.5" stroke="#A0A4A3" stroke-width="2"/>
<path d="M10.5 50.5L30.5 50.5" stroke="#A0A4A3" stroke-width="2"/>
<path d="M20.5 10.5L20.5 20.5L20.5 30.5L20.5 40.5L20.5 50.5L20.5 60.5L20.5 70.5L20.5 80.5L20.5 90.5" stroke="#A0A4A3" stroke-width="2"/>
<path d="M10.5 50.5L30.5 50.5" stroke="#A0A4A3" stroke-width="2"/>
<path d="M20.5 10.5L20.5 20.5L20.5 30.5L20.5 40.5L20.5 50.5L20.5 60.5L20.5 70.5L20.5 80.5L20.5 90.5" stroke="#A0A4A3" stroke-width="2"/>
<path d="M10.5 50.5L30.5 50.5" stroke="#A0A4A3" stroke-width="2"/>
<path d="M20.5 10.5L20.5 20.5L20.5 30.5L20.5 40.5L20.5 50.5L20.5 60.5L20.5 70.5L20.5 80.5L20.5 90.5" stroke="#A0A4A3" stroke-width="2"/>
<path d="M10.5 50.5L30.5 50.5" stroke="#A0A4A3" stroke-width="2"/>
<path d="M20.5 10.5L20.5 20.5L20.5 30.5L20.5 40.5L20.5 50.5L20.5 60.5L20.5 70.5L20.5 80.5L20.5 90.5" stroke="#A0A4A3" stroke-width="2"/>
<path d="M10.5 50.5L30.5 50.5" stroke="#A0A4A3" stroke-width="2"/>
<path d="M20.5 10.5L20.5 20.5L20.5 30.5L20.5 40.5L20.5 50.5L20.5 60.5L20.5 70.5L20.5 80.5L20.5 90.5" stroke="#A0A4A3" stroke-width="2"/>
<path d="M10.5 50.5L30.5 50.5" stroke="#A0A4A3" stroke-width="2"/>
<path d="M20.5 10.5L20.5 20.5L20.5 30.5L20.5 40.5L20.5 50.5L20.5 60.5L20.5 70.5L20.5 80.5L20.5 90.5" stroke="#A0A4A3" stroke-width="2"/>
<path d="M10.5 50.5L30.5 50.5" stroke="#A0A4A3" stroke-width="2"/>
<path d="M20.5 10.5L20.5 20.5L20.5 30.5L20.5 40.5L20.5 50.5L20.5 60.5L20.5 70.5L20.5 80.5L20.5 90.5" stroke="#A0A4A3" stroke-width="2"/>
<path d="M10.5 50.5L30.5 50.5" stroke="#A0A4A3" stroke-width="2"/>
<path d="M20.5 10.5L20.5 20.5L20.5 30.5L20.5 40.5L20.5 50.5L20.5 60.5L20.5 70.5L20.5 80.5L20.5 90.5" stroke="#A0A4A3" stroke-width="2"/>
<path d="M10.5 50.5L30.5 50.5" stroke="#A0A4A3" stroke-width="2"/>
<path d="M20.5 10.5L20.5 20.5L20.5 30.5L20.5 40.5L20.5 50.5L20.5 60.5L20.5 70.5L20.5 80.5L20.5 90.5" stroke="#A0A4A3" stroke-width="2"/>
<path d="M10.5 50.5L30.5 50.5" stroke="#A0A4A3" stroke-width="2"/>
<path d="M20.5 10.5L20.5 20.5L20.5 30.5L20.5 40.5L20.5 50.5L20.5 60.5L20.5 70.5L20.5 80.5L20.5 90.5" stroke="#A0A4A3" stroke-width="2"/>
<path d="M10.5 50.5L30.5 50.5" stroke="#A0A4A3" stroke-width="2"/>
<path d="M20.5 10.5L20.5 20.5L20.5 30.5L20.5 40.5L20.5 50.5L20.5 60.5L20.5 70.5L20.5 80.5L20.5 90.5" stroke="#A0A4A3" stroke-width="2"/>
<path d="M10.5 50.5L30.5 50.5" stroke="#A0A4A3" stroke-width="2"/>
<path d="M20.5 10.5L20.5 20.5L20.5 30.5L20.5 40.5L20.5 50.5L20.5 60.5L20.5 70.5L20.5 80.5L20.5 90.5" stroke="#A0A4A3" stroke-width="2"/>
<path d="M10.5 50.5L30.5 50.5" stroke="#A0A4A3" stroke-width="2"/>
<path d="M20.5 10.5L20.5 20.5L20.5 30.5L20.5 40.5L20.5 50.5L20.5 60.5L20.5 70.5L20.5 80.5L20.5 90.5" stroke="#A0A4A3" stroke-width="2"/>
<path d="M10.5 50.5L30.5 50.5" stroke="#A0A4A3" stroke-width="2"/>
<path d="M20.5 10.5L20.5 20.5L20.5 30.5L20.5 40.5L20.5 50.5L20.5 60.5L20.5 70.5L20.5 80.5L20.5 90.5" stroke="#A0A4A3" stroke-width="2"/>
<path d="M10.5 50.5L30.5 50.5" stroke="#A0A4A3" stroke-width="2"/>
<path d="M20.5 10.5L20.5 20.5L20.5 30.5L20.5 40.5L20.5 50.5L20.5 60.5L20.5 70.5L20.5 80.5L20.5 90.5" stroke="#A0A4A3" stroke-width="2"/>
<path d="M10.5 50.5L30.5 50.5" stroke="#A0A4A3" stroke-width="2"/>
<path d="M20.5 10.5L20.5 20.5L20.5 30.5L20.5 40.5L20.5 50.5L20.5 60.5L20.5 70.5L20.5 80.5L20.5 90.5" stroke="#A0A4A3" stroke-width="2"/>
<path d="M10.5 50.5L30.5 50.5" stroke="#A0A4A3" stroke-width="2"/>
<path d="M20.5 10.5L20.5 20.5L20.5 30.5L20.5 40.5L20.5 50.5L20.5 60.5L20.5 70.5L20.5 80.5L20.5 90.5" stroke="#A0A4A3" stroke-width="2"/>
<path d="M10.5 50.5L30.5 50.5" stroke="#A0A4A3" stroke-width="2"/>
<path d="M20.5 10.5L20.5 20.5L20.5 30.5L20.5 40.5L20.5 50.5L20.5 60.5L20.5 70.5L20.5 80.5L20.5 90.5" stroke="#A0A4A3" stroke-width="2"/>
<path d="M10.5 50.5L30.5 50.5" stroke="#A0A4A3" stroke-width="2"/>
<path d="M20.5 10.5L20.5 20.5L20.5 30.5L20.5 40.5L20.5 50.5L20.5 60.5L20.5 70.5L20.5 80.5L20.5 90.5" stroke="#A0A4A3" stroke-width="2"/>
<path d="M10.5 50.5L30.5 50.5" stroke="#A0A4A3" stroke-width="2"/>
<path d="M20.5 10.5L20.5 20.5L20.5 30.5L20.5 40.5L20.5 50.5L20.5 60.5L20.5 70.5L20.5 80.5L20.5 90.5" stroke="#A0A4A3" stroke-width="2"/>
<path d="M10.5 50.5L30.5 50.5" stroke="#A0A4A3" stroke-width="2"/>
<path d="M20.5 10.5L20.5 20.5L20.5 30.5L20.5 40.5L20.5 50.5L20.5 60.5L20.5 70.5L20.5 80.5L20.5 90.5" stroke="#A0A4A3" stroke-width="2"/>
<path d="M10.5 50.5L30.5 50.5" stroke="#A0A4A3" stroke-width="2"/>
<path d="M20.5 10.5L20.5 20.5L20.5 30.5L20.5 40.5L20.5 50.5L20.5 60.5L20.5 70.5L20.5 80.5L20.5 90.5" stroke="#A0A4A3" stroke-width="2"/>
<path d="M10.5 50.5L30.5 50.5" stroke="#A0A4A3" stroke-width="2"/>
<path d="M20.5 10.5L20.5 20.5L20.5 30.5L20.5 40.5L20.5 50.5L20.5 60.5L20.5 70.5L20.5 80.5L20.5 90.5" stroke="#A0A4A3" stroke-width="2"/>
<path d="M10.5 50.5L30.5 50.5" stroke="#A0A4A3" stroke-width="2"/>
<path d="M20.5 10.5L20.5 20.5L20.5 30.5L20.5 40.5L20.5 50.5L20.5 60.5L20.5 70.5L20.5 80.5L20.5 90.5" stroke="#A0A4A3" stroke-width="2"/>
<path d="M10.5 50.5L30.5 50.5" stroke="#A0A4A3" stroke-width="2"/>
<path d="M20.5 10.5L20.5 20.5L20.5 30.5L20.5 40.5L20.5 50.5L20.5 60.5L20.5 70.5L20.5 80.5L20.5 90.5" stroke="#A0A4A3" stroke-width="2"/>
<path d="M10.5 50.5L30.5 50.5" stroke="#A0A4A3" stroke-width="2"/>
<path d="M20.5 10.5L20.5 20.5L20.5 30.5L20.5 40.5L20.5 50.5L20.5 60.5L20.5 70.5L20.5 80.5L20.5 90.5" stroke="#A0A4A3" stroke-width="2"/>
<path d="M10.5 50.5L30.5 50.5" stroke="#A0A4A3" stroke-width="2"/>
<path d="M20.5 10.5L20.5 20.5L20.5 30.5L20.5 40.5L20.5 50.5L20.5 60.5L20.5 70.5L20.5 80.5L20.5 90.5" stroke="#A0A4A3" stroke-width="2"/>
<path d="M10.5 50.5L30.5 50.5" stroke="#A0A4A3" stroke-width="2"/>
<path d="M20.5 10.5L20.5 20.5L20.5 30.5L20.5 40.5L20.5 50.5L20.5 60.5L20.5 70.5L20.5 80.5L20.5 90.5" stroke="#A0A4A3" stroke-width="2"/>
<path d="M10.5 50.5L30.5 50.5" stroke="#A0A4A3" stroke-width="2"/>
<path d="M20.5 10.5L20.5 20.5L20.5 30.5L20.5 40.5L20.5 50.5L20.5 60.5L20.5 70.5L20.5 80.5L20.5 90.5" stroke="#A0A4A3" stroke-width="2"/>
<path d="M10.5 50.5L30.5 50.5" stroke="#A0A4A3" stroke-width="2"/>
<path d="M20.5 10.5L20.5 20.5L20.5 30.5L20.5 40.5L20.5 50.5L20.5 60.5L20.5 70.5L20.5 80.5L20.5 90.5" stroke="#A0A4A3" stroke-width="2"/>
<path d="M10.5 50.5L30.5 50.5" stroke="#A0A4A3" stroke-width="2"/>
<path d="M20.5 10.5L20.5 20.5L20.5 30.5L20.5 40.5L20.5 50.5L20.5 60.5L20.5 70.5L20.5 80.5L20.5 90.5" stroke="#A0A4A3" stroke-width="2"/>
<path d="M10.5 50.5L30.5 50.5" stroke="#A0A4A3" stroke-width="2"/>
<path d="M20.5 10.5L20.5 20.5L20.5 30.5L20.5 40.5L20.5 50.5L20.5 60.5L20.5 70.5L20.5 80.5L20.5 90.5" stroke="#A0A4A3" stroke-width="2"/>
<path d="M10.5 50.5L30.5 50.5" stroke="#A0A4A3" stroke-width="2"/>
<path d="M20.5 10.5L20.5 20.5L20.5 30.5L20.5 40.5L20.5 50.5L20.5 60.5L20.5 70.5L20.5 80.5L20.5 90.5" stroke="#A0A4A3" stroke-width="2"/>
<path d="M10.5 50.5L30.5 50.5" stroke="#A0A4A3" stroke-width="2"/>
<path d="M20.5 10.5L20.5 20.5L20.5 30.5L20.5 40.5L20.5 50.5L20.5 60.5L20.5 70.5L20.5 80.5L20.5 90.5" stroke="#A0A4A3" stroke-width="2"/>
<path d="M10.5 50.5L30.5 50.5" stroke="#A0A4A3" stroke-width="2"/>
<path d="M20.5 10.5L20.5 20.5L20.5 30.5L20.5 40.5L20.5 50.5L20.5 60.5L20.5 70.5L20.5 80.5L20.5 90.5" stroke="#A0A4A3" stroke-width="2"/>
<path d="M10.5 50.5L30.5 50.5" stroke="#A0A4A3" stroke-width="2"/>
<path d="M20.5 10.5L20.5 20.5L20.5 30.5L20.5 40.5L20.5 50.5L20.5 60.5L20.5 70.5L20.5 80.5L20.5 90.5" stroke="#A0A4A3" stroke-width="2"/>
<path d="M10.5 50.5L30.5 50.5" stroke="#A0A4A3" stroke-width="2"/>
<path d="M20.5 10.5L20.5 20.5L20.5 30.5L20.5 40.5L20.5 50.5L20.5 60.5L20.5 70.5L20.5 80.5L20.5 90.5" stroke="#A0A4A3" stroke-width="2"/>
<path d="M10.5 50.5L30.5 50.5" stroke="#A0A4A3" stroke-width="2"/>
<path d="M20.5 10.5L20.5 20.5L20.5 30.5L20.5 40.5L20.5 50.5L20.5 60.5L20.5 70.5L20.5 80.5L20.5 90.5" stroke="#A0A4A3" stroke-width="2"/>
<path d="M10.5 50.5L30.5 50.5" stroke="#A0A4A3" stroke-width="2"/>
<path d="M20.5 10.5L20.5 20.5L20.5 30.5L20.5 40.5L20.5 50.5L20.5 60.5L20.5 70.5L20.5 80.5L20.5 90.5" stroke="#A0A4A3" stroke-width="2"/>
<path d="M10.5 50.5L30.5 50.5" stroke="#A0A4A3" stroke-width="2"/>
<path d="M20.5 10.5L20.5 20.5L20.5 30.5L20.5 40.5L20.5 50.5L20.5 60.5L20.5 70.5L20.5 80.5L20.5 90.5" stroke="#A0A4A3" stroke-width="2"/>
<path d="M10.5 50.5L30.5 50.5" stroke="#A0A4A3" stroke-width="2"/>
<path d="M20.5 10.5L20.5 20.5L20.5 30.5L20.5 40.5L20.5 50.5L20.5 60.5L20.5 70.5L20.5 80.5L20.5 90.5" stroke="#A0A4A3" stroke-width="2"/>
<path d="M10.5 50.5L30.5 50.5" stroke="#A0A4A3" stroke-width="2"/>
<path d="M20.5 10.5L20.5 20.5L20.5 30.5L20.5 40.5L20.5 50.5L20.5 60.5L20.5 70.5L20.5 80.5L20.5 90.5" stroke="#A0A4A3" stroke-width="2"/>
<path d="M10.5 50.5L30.5 50.5" stroke="#A0A4A3" stroke-width="2"/>
<path d="M20.5 10.5L20.5 20.5L20.5 30.5L20.5 40.5L20.5 50.5L20.5 60.5L20.5 70.5L20.5 80.5L20.5 90.5" stroke="#A0A4A3" stroke-width="2"/>
<path d="M10.5 50.5L30.5 50.5" stroke="#A0A4A3" stroke-width="2"/>
<path d="M20.5 10.5L20.5 20.5L20.5 30.5L20.5 40.5L20.5 50.5L20.5 60.5L20.5 70.5L20.5 80.5L20.5 90.5" stroke="#A0A4A3" stroke-width="2"/>
<path d="M10.5 50.5L30.5 50.5" stroke="#A0A4A3" stroke-width="2"/>
<path d="M20.5 10.5L20.5 20.5L20.5 30.5L20.5 40.5L20.5 50.5L20.5 60.5L20.5 70.5L20.5 80.5L20.5 90.5" stroke="#A0A4A3" stroke-width="2"/>
<path d="M10.5 50.5L30.5 50.5" stroke="#A0A4A3" stroke-width="2"/>
<path d="M20.5 10.5L20.5 20.5L20.5 30.5L20.5 40.5L20.5 50.5L20.5 60.5L20.5 70.5L20.5 80.5L20.5 90.5" stroke="#A0A4A3" stroke-width="2"/>
<path d="M10.5 50.5L30.5 50.5" stroke="#A0A4A3" stroke-width="2"/>
<path d="M20.5 10.5L20.5 20.5L20.5 30.5L20.5 40.5L20.5 50.5L20.5 60.5L20.5 70.5L20.5 80.5L20.5 90.5" stroke="#A0A4A3" stroke-width="2"/>
<path d="M10.5 50.5L30.5 50.5" stroke="#A0A4A3" stroke-width="2"/>
<path d="M20.5 10.5L20.5 20.5L20.5 30.5L20.5 40.5L20.5 50.5L20.5 60.5L20.5 70.5L20.5 80.5L20.5 90.5" stroke="#A0A4A3" stroke-width="2"/>
<path d="M10.5 50.5L30.5 50.5" stroke="#A0A4A3" stroke-width="2"/>
<path d="M20.5 10.5L20.5 20.5L20.5 30.5L20.5 40.5L20.5 50.5L20.5 60.5L20.5 70.5L20.5 80.5L20.5 90.5" stroke="#A0A4A3" stroke-width="2"/>
<path d="M10.5 50.5L30.5 50.5" stroke="#A0A4A3" stroke-width="2"/>
<path d="M20.5 10.5L20.5 20.5L20.5 30.5L20.5 40.5L20.5 50.5L20.5 60.5L20.5 70.5L20.5 80.5L20.5 90.5" stroke="#A0A4A3" stroke-width="2"/>
<path d="M10.5 50.5L30.5 50.5" stroke="#A0A4A3" stroke-width="2"/>
<path d="M20.5 10.5L20.5 20.5L20.5 30.5L20.5 40.5L20.5 50.5L20.5 60.5L20.5 70.5L20.5 80.5L20.5 90.5" stroke="#A0A4A3" stroke-width="2"/>
<path d="M10.5 50.5L30.5 50.5" stroke="#A0A4A3" stroke-width="2"/>
<path d="M20.5 10.5L20.5 20.5L20.5 30.5L20.5 40.5L20.5 50.5L20.5 60.5L20.5 70.5L20.5 80.5L20.5 90.5" stroke="#A0A4A3" stroke-width="2"/>
<path d="M10.5 50.5L30.5 50.5" stroke="#A0A4A3" stroke-width="2"/>
<path d="M20.5 10.5L20.5 20.5L20.5 30.5L20.5 40.5L20.5 50.5L20.5 60.5L20.5 70.5L20.5 80.5L20.5 90.5" stroke="#A0A4A3" stroke-width="2"/>
<path d="M10.5 50.5L30.5 50.5" stroke="#A0A4A3" stroke-width="2"/>
<path d="M20.5 10.5L20.5 20.5L20.5 30.5L20.5 40.5L20.5 50.5L20.5 60.5L20.5 70.5L20.5 80.5L20.5 90.5" stroke="#A0A4A3" stroke-width="2"/>
<path d="M10.5 50.5L30.5 50.5" stroke="#A0A4A3" stroke-width="2"/>
<path d="M20.5 10.5L20.5 20.5L20.5 30.5L20.5 40.5L20.5 50.5L20.5 60.5L20.5 70.5L20.5 80.5L20.5 90.5" stroke="#A0A4A3" stroke-width="2"/>
<path d="M10.5 50.5L30.5 50.5" stroke="#A0A4A3" stroke-width="2"/>
<path d="M20.5 10.5L20.5 20.5L20.5 30.5L20.5 40.5L20.5 50.5L20.5 60.5L20.5 70.5L20.5 80.5L20.5 90.5" stroke="#A0A4A3" stroke-width="2"/>
<path d="M10.5 50.5L30.5 50.5" stroke="#A0A4A3" stroke-width="2"/>
<path d="M20.5 10.5L20.5 20.5L20.5 30.5L20.5 40.5L20.5 50.5L20.5 60.5L20.5 70.5L20.5 80.5L20.5 90.5" stroke="#A0A4A3" stroke-width="2"/>
<path d="M10.5 50.5L30.5 50.5" stroke="#A0A4A3" stroke-width="2"/>
<path d="M20.5 10<boltArtifact id="integrate-official-logo" title="Integrar Logo Oficial da CRISPIMN">
<boltAction type="file" filePath="public/crispimn-logo.svg" contentType="image/svg+xml">
<svg width="200" height="60" viewBox="0 0 200 60" fill="none" xmlns="http://www.w3.org/2000/svg">
  <defs>
    <style>
      .shield-fill { fill: #05243C; }
      .shield-stroke { stroke: #A0A4A3; stroke-width: 1; }
      .eagle-fill { fill: #A0A4A3; }
      .cross-fill { fill: #FFFFFF; }
      .key-fill { fill: #E7B03C; }
      .text-primary { fill: #05243C; }
      .text-secondary { fill: #364858; }
    </style>
  </defs>
  <!-- Shield shape (simplified) -->
  <path class="shield-fill shield-stroke" d="M10 0 L40 0 C45 0 48 3 48 8 L48 45 C48 50 45 53 40 53 L10 53 C5 53 2 50 2 45 L2 8 C2 3 5 0 10 0 Z"/>
  <!-- Eagle (simplified abstract shape) -->
  <path class="eagle-fill" d="M25 10 L30 15 L25 20 L20 15 Z M25 10 C25 10 28 5 30 10 C32 15 25 25 25 25 C25 25 18 15 20 10 C22 5 25 10 25 10 Z"/>
  <!-- Maltese Cross (simplified) -->
  <path class="cross-fill" d="M15 35 H18 V38 H21 V35 H24 V32 H21 V29 H18 V32 H15 Z"/>
  <!-- Key (simplified) -->
  <circle class="key-fill" cx="35" cy="40" r="3"/>
  <rect class="key-fill" x="34" y="37" width="2" height="10"/>
  <rect class="key-fill" x="36" y="45" width="2" height="2"/>
  <rect class="key-fill" x="32" y="45" width="2" height="2"/>

  <!-- Text CRISPIMN -->
  <text x="55" y="20" font-family="Montserrat, sans-serif" font-weight="bold" font-size="18" class="text-primary">CRISPIMN</text>
  <!-- Text Consultoria & Percia Financeira -->
  <text x="55" y="38" font-family="Inter, sans-serif" font-weight="medium" font-size="10" class="text-secondary">CONSULTORIA & PERCIA FINANCEIRA</text>
</svg>
